<?xml version="1.0" encoding="UTF-8" standalone="no"?>
<svg
   width="512mm"
   height="512mm"
   viewBox="0 0 512 512"
   version="1.1"
   inkscape:label="Mascot Body - Flying Bank"
   id="svg1"
   sodipodi:docname="fly-bank.svg"
   inkscape:version="1.4.4 (dcaf3e7d9e, 2026-05-05)"
   xmlns:inkscape="http://www.inkscape.org/namespaces/inkscape"
   xmlns:sodipodi="http://sodipodi.sourceforge.net/DTD/sodipodi-0.dtd"
   xmlns="http://www.w3.org/2000/svg"
   xmlns:svg="http://www.w3.org/2000/svg">
  <defs
     id="defs1" />
  <sodipodi:namedview
     id="namedview1"
     pagecolor="#ffffff"
     bordercolor="#000000"
     borderopacity="0.25"
     inkscape:showpageshadow="2"
     inkscape:pageopacity="0.0"
     inkscape:pagecheckerboard="0"
     inkscape:deskcolor="#d1d1d1"
     inkscape:document-units="mm"
     inkscape:zoom="0.25166423"
     inkscape:cx="969.54583"
     inkscape:cy="425.16969"
     inkscape:window-width="1066"
     inkscape:window-height="693"
     inkscape:window-x="0"
     inkscape:window-y="0"
     inkscape:window-maximized="1"
     inkscape:current-layer="mascot_body" />
  <g
     id="layer1"
     inkscape:label="Layer 1">
    <g
       id="mascot_body"
       inkscape:label="Flying Bank">
      <path
         id="glasses_frame"
         style="fill:#002b36;stroke:none"
         inkscape:label="glasses_frame"
         d="M -4.2390218 -0.47032878 C -8.1422834 -0.34548996 -11.093843 1.5844576 -13.597624 5.4962321 L -15.062651 8.4376546 C -19.863572 17.797542 -21.349278 27.226775 -21.263822 37.652409 L -21.187341 41.250122 C -21.149076 44.737706 -21.110943 48.22479 -21.047815 51.712016 L -20.999756 54.000248 C -24.563631 53.942766 -27.785666 53.392931 -31.000179 55.000187 C -35.493534 61.475904 -35.459851 67.627476 -35.191654 75.238228 L -34.999935 78.999756 C -34.523419 90.493315 -34.523623 90.493384 -24.390763 112.95686 L -23.000151 116.00008 L -25.000028 116.00008 C -26.601591 117.14461 -26.601408 117.14443 -27.999845 118.9999 C -28.907486 125.00634 -28.594066 131.30308 -26.093502 136.88304 L -25.000028 139.00023 C -18.771025 151.42363 -10.361069 159.67783 0.94515788 167.60158 L 2.9998128 168.99995 C 1.8199104 172.53965 1.8041812 175.28169 1.9998739 178.99985 C 5.2582819 186.66232 10.934918 190.92963 18.023185 194.93376 L 19.999809 195.99985 C 14.720674 198.08372 9.6043671 198.57928 3.9997518 199.00018 C -3.3023745 183.88049 -11.384345 163.21168 -26.999906 154.99977 C -31.248925 154.35841 -32.400032 154.60027 -35.999874 157.00016 L -36.687687 160.62475 L -36.999813 164.00025 C -40.647308 161.77003 -44.343231 159.64121 -48.091642 157.58617 L -50.312695 156.37488 L -52.498092 155.14084 C -57.813067 152.2617 -63.267249 149.91925 -69.375098 151.68731 C -71.430435 153.34739 -72.161758 154.48484 -73.000199 157.00016 C -73.60063 168.6752 -68.501586 178.7509 -62.609619 188.42977 L -60.999898 191.00015 C -64.842362 192.44029 -67.06911 193.23978 -68.999927 196.99979 C -69.400698 200.67352 -69.452171 203.09416 -67.789148 206.42557 C -58.086767 220.38598 -39.87703 226.95178 -24.125146 230.99978 C -21.679069 231.5144 -19.335696 232.07831 -16.96331 232.86633 C -13.942162 234.61079 -13.941738 234.61067 -11.086666 240.67309 C -9.6862576 243.67082 -9.6863471 243.67115 -5.3123413 249.81259 C -2.9635196 253.10094 -0.67416484 256.30273 0.9999349 260.00008 L -0.31264648 261.50024 C -3.3465926 265.99498 -5.479708 270.49982 -4.6875732 276.00013 L -3.9997599 278.99995 C -18.212532 289.36772 -29.815039 301.953 -37.785295 317.64049 C -39.490596 322.35611 -39.615342 326.19155 -37.999752 330.93735 L -36.999813 332.99976 C -38.682917 334.98807 -40.35461 336.98059 -42.000024 338.99991 C -50.443891 350.00296 -57.847827 361.50958 -56.000203 376.00023 C -54.579151 378.84234 -54.579061 378.84197 -49.000114 381.99987 C -45.825617 382.283 -43.533291 382.19223 -40.527246 381.10948 L -37.93774 379.74987 C -32.584863 376.94127 -32.584407 376.94162 -21.062284 370.31272 C -0.11038041 358.24576 21.473242 347.46405 43.601986 337.72298 L 46.687585 336.37474 L 49.640377 335.08387 L 52.386462 333.89841 C 54.602147 332.94201 56.814422 332.06571 59.088896 331.26033 C 60.999784 331.00007 60.999792 331.00024 64.187292 332.93774 C 65.995886 334.07056 65.996073 334.07046 67.99998 335.00015 C 72.984738 335.64709 77.324443 335.34324 81.86735 333.06228 C 85.491846 331.14426 88.834012 329.22519 93.000004 329 C 96.78274 330.53354 99.739324 331.37838 103.89443 331.24586 C 113.17898 330.16065 121.05208 323.88728 127 317.00022 C 128.28566 314.35226 129.56431 311.76548 131.05091 309.22291 C 133.50046 306.42974 135.07169 306.04125 138.68765 305.31256 C 148.72566 303.64716 158.15182 300.2221 167.35154 295.89349 C 191.97532 283.59204 218.55213 262.4696 228.21501 235.62482 L 228.99997 233.00017 L 230.99985 233.00017 C 245.32536 227.51757 257.709 219.10407 265.89436 205.95686 C 268.77203 200.96306 270.65752 197.7165 276.0002 195.25002 C 279.41196 193.79228 282.03953 192.42977 284.75006 189.87516 C 292.7482 181.14134 296.99563 169.72121 297.3126 157.93757 C 296.953 148.57305 295.62152 137.22036 288.37102 130.48705 C 284.06047 126.58719 282.04892 123.50918 280.55755 117.88317 C 279.51299 113.55149 278.30083 109.26183 277.00014 105.00024 C 269.47409 85.973697 254.21519 67.816301 235.86725 58.390678 C 230.87612 56.021555 227.73818 54.656329 225.75004 49.312679 C 222.22465 38.151727 214.84798 29.460821 205.99983 22.000134 C 200.56338 18.352098 195.68291 16.045196 188.99983 16.999923 C 185.99983 18.999923 186.00009 18.999947 184.83212 21.16401 L 183.81255 23.624841 L 182.76972 26.101693 L 182.00026 27.999768 C 177.75412 25.784393 174.50551 24.764232 169.68731 24.687309 C 166.28196 24.702954 165.46986 24.529832 162.99987 26.999829 C 160.66905 30.107583 159.94123 31.37496 160.31269 35.3125 L 160.99999 38.000191 C 139.14456 40.897372 118.42908 49.07594 104.1094 66.566406 L 102.99991 67.99991 C 102.56296 59.582879 101.90131 51.403185 100.40214 43.097555 L 100.00009 41.000008 L 101.99997 41.000008 C 104.35553 37.466675 104.35541 37.466829 103.99985 30.000163 C 102.99985 28.000163 103 28.000033 100.9375 26.312533 C 96.714513 24.425664 94.495014 24.912432 90.000187 25.99989 C 87.558111 28.12686 87.557896 28.126921 86.124972 32.937451 C 85.971493 36.697673 86.604366 38.124949 89.000248 41.000008 L 93.999943 42.999886 L 93.999943 81.000151 L 92.000065 81.000151 C 82.090963 86.342267 74.41268 93.874577 69.777132 104.12897 L 68.999919 106.00017 L 66.000102 103.43754 C 64.667207 102.2912 63.33357 101.14538 61.999829 100.00002 L 59.894531 98.218738 L 57.812488 96.437451 C 55.659657 94.60908 53.866003 92.835474 52.077954 90.640389 L 50.000045 88.00024 C 31.590295 67.382513 20.47159 43.185116 10.100671 17.798324 C 7.5056118 11.408717 5.4877663 4.4424075 -4.0690105e-06 -7.3242188e-05 C -1.5312969 -0.3529764 -2.9379346 -0.51194172 -4.2390218 -0.47032878 z M 282.99978 139.00023 C 287.23779 142.86194 287.86464 147.26 288.30074 152.86708 C 288.50465 166.64585 285.56566 174.11508 277.00014 185 C 276.0227 181.93294 276.00894 180.08026 276.92573 177.00773 L 277.58925 174.65128 L 278.31272 172.12482 C 281.27678 161.18218 282.3085 150.28732 282.99978 139.00023 z "
         transform="translate(144,52)" />
      <path
         d="M0 0 C0.9900000000000091 0.3300000000000125 1.9800000000000182 0.6599999999999966 3 1 C2.953593749999982 2.16015625 2.9071874999999636 3.3203125 2.859375 4.515625 C2.452418466739573 18.993647314963653 4.555235099642289 30.991037444661487 14.8125 41.93359375 C24.76027543049929 51.25963321609305 35.13725278261023 53.590305741166816 48.375 53.3359375 C58.77532644484029 52.82354356684624 67.90284972444829 47.4532356699998 75 40 C79.46175385246812 33.74512620304938 82.4226421833381 27.18947180437266 85 20 C87.5317873290436 18.734106335478202 89.00558990524996 18.99750433930285 91.8125 19.25 C92.66457031250002 19.317031250000014 93.51664062499998 19.3840625 94.39453125 19.453125 C97.61952083780272 20.13003435875919 99.5064402139605 20.810314883226965 102 23 C102.27699114233371 25.657870062393158 102.27889487809483 27.753056377629377 102.0625 30.375 C101.62609328699466 41.84885982943217 104.16795309007392 51.159258107049396 111.84765625 59.96875 C116.2005103233048 64.07670665720232 121.05377962449364 66.25672245306171 127 67 C123.6838670505764 78.75101470795744 113.12653697763136 86.07914775321785 103 92 C85.72129145319144 100.66144980863038 65.99951006698109 102 47 102 C59.38403932930294 106.13621989527417 72.11596935401894 105.29367457346189 85 105 C80.70036065101124 115.99025305153526 73.43677088530342 124.26157833912606 65.3349609375 132.61376953125 C64.25768513846276 133.73241839499053 63.20653280239401 134.87619037352664 62.1640625 136.02734375 C43.38498208144625 156.28396602889677 14.0425211475698 167.49556947007727 -13 170 C-16.16863869280428 170.10154389465038 -19.330207070463416 170.0960564398078 -22.5 170.0625 C-22.911210937500016 170.060244140625 -22.911210937500016 170.060244140625 -24.9921875 170.048828125 C-26.994823960508057 170.0371848897645 -28.997422265808524 170.01925555513645 -31 170 C-30.631892089843745 169.50951171875 -30.26378417968749 169.01902343749998 -29.884521484375 168.513671875 C-28.89076055366388 167.187923220622 -27.89977199302814 165.86009572586283 -26.91015625 164.53125 C-25.56255245111751 162.74546827878146 -24.193179251446622 160.97601359541886 -22.80859375 159.21875 C-13.197533790755074 146.85934971399968 -5.776289517764155 133.14733774134857 -5.9375 117.1875 C-5.946523437499991 116.0260546875 -5.955546874999982 114.86460937499999 -5.96484375 113.66796875 C-5.9764453125000045 112.7875390625 -5.988046875000009 111.907109375 -6 111 C-7.724800875685332 114.11759782694298 -8.833536459198683 117.36022379144816 -9.951904296875 120.735107421875 C-21.49745936584111 155.3027981876046 -48.26016294511527 178.0600394634788 -80.0732421875 194.04150390625 C-87.77572779606345 197.84632468322002 -95.59658354057365 201.28759922462393 -103.5625 204.5 C-116.50042308596625 209.74303934300144 -128.62421287635476 216.2720109164809 -140.8125 223.0625 C-141.8501953125 223.64008056640625 -142.887890625 224.2176611328125 -143.95703125 224.812744140625 C-149.95507445659217 228.18616528400094 -155.79233669439196 231.7376073012548 -161.577880859375 235.462646484375 C-164.45622021237494 237.28956946651795 -167.34430152042958 238.9389827009336 -170.375 240.5 C-171.331484375 241.0053125 -172.28796875 241.510625 -173.2734375 242.03125 C-176.3488757778568 243.12395586376573 -177.91899753304756 242.94110620808726 -181 242 C-179.6287561687097 227.12200443050034 -169.67910655799352 215.60162352191725 -160 205 C-159.70287109375 204.667421875 -159.70287109375 204.667421875 -158.19921875 202.984375 C-146.26600605979047 190.31088856970302 -129.951274354908 180.65414939131142 -115 172 C-129.99607979648763 176.81788946653114 -144.4547252348539 182.55799947945923 -157.94140625 190.796875 C-160 192 -160 192 -162 192 C-161.44884919387005 187.42968793070708 -159.61856431566196 184.47306360673986 -157.0625 180.6875 C-156.3522265625 179.61886718749997 -155.641953125 178.550234375 -154.91015625 177.44921875 C-154.27980468750002 176.6409765625 -153.649453125 175.83273437499997 -153 175 C-152.34 175 -151.68 175 -151 175 C-150.7421875 174.41734375 -150.484375 173.83468749999997 -150.21875 173.234375 C-143.7722551699897 161.41580114498112 -129.25219220471172 153.63682860366725 -117.9345703125 147.11572265625 C-116.0311773862532 146.01798090045145 -114.13618636126932 144.90682282599028 -112.2421875 143.79296875 C-105.97160194805392 140.1294063500913 -99.71518866693853 136.77869875873319 -93 134 C-95.87154652326092 134 -97.77109259846307 134.40879260971684 -100.5 135.20703125 C-101.38276611328126 135.46274902343748 -102.2655322265625 135.71846679687496 -103.175048828125 135.98193359375 C-104.10728271484373 136.25602050781254 -105.0395166015625 136.53010742187496 -106 136.8125 C-107.899600244877 137.36376162527267 -109.79933870761292 137.91454719869847 -111.69921875 138.46484375 C-112.6123583984375 138.7302294921875 -113.52549804687499 138.995615234375 -114.46630859375 139.26904296875 C-118.96294831283177 140.56630056355925 -123.47845948145527 141.79284398333937 -128 143 C-126.78775020419002 134.33465886698798 -119.28767068849771 129.15497057633564 -112.767333984375 124.009033203125 C-108.41641520985524 120.85034678093507 -103.79570714175449 118.4101544612887 -99 116 C-98.50306640625001 115.74581298828127 -98.50306640625001 115.74581298828127 -95.98828125 114.45947265625 C-73.32334780049018 102.97827637460807 -73.32334780049018 102.97827637460807 -62 100 C-62 99.34000000000003 -62 98.68 -62 98 C-84.07780946204787 101.18591174515626 -105.97927180519173 107.91895592995621 -123 123 C-132.8222463986756 119.32771868878342 -138.98107932271392 102.94049460917307 -143.1474609375 93.93505859375 C-147 85.19072164948454 -147 85.19072164948454 -147 80 C-146.296171875 79.93006835937501 -145.59234375 79.86013671875003 -144.8671875 79.7880859375 C-115.68485729105186 76.8260413242549 -84.86581449901021 71.19218133671137 -64.875 47.375 C-59.062806514212014 39.74354269955481 -53.76453870953546 31.21512903178484 -51 22 C-48.27486239340084 24.725137606599162 -47.49141907328203 27.936502084607696 -46.25 31.5 C-43.82379858759302 38.17539678257475 -41.09368698274557 44.153298640214985 -37 50 C-36.43925781249999 50.82886718750001 -35.878515625000006 51.65773437499999 -35.30078125 52.51171875 C-30.06317640930635 59.68185703296217 -23.59560817117415 64.54591815458059 -16 69 C-15.340000000000032 69 -14.680000000000007 69 -14 69 C-14.689648437500011 68.296171875 -15.379296875000023 67.59234375 -16.08984375 66.8671875 C-26.506811464633756 56.015946484684605 -35.57759937381863 43.57469423758903 -40 29 C-39.6484375 26.601562500000057 -39.6484375 26.601562500000057 -39 25 C-38.00999999999999 25.329999999999984 -37.02000000000001 25.659999999999997 -36 26 C-28.120298889446673 26.65754003795314 -21.577486411155263 26.656627547720547 -15 22 C-14.396718749999991 21.587500000000006 -13.793437499999982 21.17500000000001 -13.171875 20.75 C-6.513358324790545 15.65478723983972 -2.120996621349036 8.059787161126252 0 0 Z "
         transform="translate(277,182)"
         id="body"
         inkscape:label="body"
         style="fill:#f48498;stroke:none" />
      <path
         d="M0 0 C0.6599999999999966 0 1.3199999999999932 0 2 0 C5.070109779847513 7.065607259294424 8.072108322362311 14.13586526494963 10.875 21.3125 C22.770861726071786 51.31568259430972 39.98684706688766 83.29685398769783 66.96484375 102.390625 C70.74350567761158 105.203371301944 72.36507252241097 107.11222946329767 73.25 111.8125 C73.3724609375 112.6723046875 73.49492187499999 113.532109375 73.62109375 114.41796875 C74.48604504673335 120.31212140093555 76.22497855133383 125.10448886789942 79.9375 129.75 C81.76790716830442 132.52317712547324 82.04163616170581 133.65197599617642 81.640625 137.00390625 C78.09283427541772 149.31939290459502 72.00145640690374 158.9834909904091 63 168 C62.311640624999995 168.6999609375 61.62328124999999 169.399921875 60.9140625 170.12109375 C55.0668963046233 175.6965514790488 45.944642110612364 183.81764901501188 37.453125 184.078125 C34.97762216077746 183.3582979332757 33.16551676311656 182.40052442831995 31 181 C30.57203125000001 180.73380859374998 30.57203125000001 180.73380859374998 28.40625 179.38671875 C23.863832732731197 176.3740272977379 19.445652143730797 173.24963764393468 16 169 C16 167.68 16 166.36 16 165 C24.579999999999984 165.66 33.16 166.32 42 167 C40.185 166.175 38.370000000000005 165.35 36.5 164.5 C33.99734398983529 163.338636753453 31.497161019064436 162.17303923915716 29 161 C28.337099609375002 160.689658203125 27.674199218750005 160.37931640625 26.9912109375 160.0595703125 C8.241415760454203 151.21226436315806 -5.938028135271537 140.6510564202756 -14 121 C-14.6875 118.08203125 -14.6875 118.08203125 -15 116 C-11.638116092702717 116 -11.099660239483455 116.40122055991645 -8.515625 118.34375 C-7.834597167968752 118.844873046875 -7.1535693359375045 119.34599609374999 -6.451904296875 119.8623046875 C-6.088590087890623 120.13252441406252 -6.088590087890623 120.13252441406252 -4.25 121.5 C1.4272262606279469 125.61490536580624 7.125612318190861 129.44166925560432 13.3125 132.75 C13.927705078125001 133.08451171875 14.542910156250002 133.4190234375 15.1767578125 133.763671875 C18.46827114820087 135.47283290358837 20.189587059870945 136 24 136 C23.298749999999984 135.4315234375 22.597499999999997 134.863046875 21.875 134.27734375 C6.2090975788700575 121.52751283932491 6.2090975788700575 121.52751283932491 0 115 C-0.26039062500001364 114.73703125 -0.26039062500001364 114.73703125 -1.578125 113.40625 C-14.321352866057765 99.85939515139808 -21.241390993645084 81.64079403677405 -21.0625 63.1875 C-21.057988281250005 62.30384765625 -21.053476562499995 61.4201953125 -21.048828125 60.509765625 C-21.03709865897636 58.33981441062613 -21.019164950486186 56.169898282825415 -21 54 C-16.887443979087976 55.86830195244829 -14.42931253965989 58.5893348670361 -11.5625 62 C-11.043168945312502 62.609404296875 -10.523837890625003 63.21880859375 -9.98876953125 63.8466796875 C-5.238190620411359 69.51897032124873 -1.000216130239039 75.51868441542592 3.25439453125 81.56591796875 C7.629949628278837 87.69700685584621 12.383464212483261 92.95399267848381 18 98 C17.526914062499998 97.17500000000001 17.053828124999995 96.35 16.56640625 95.5 C15.534990494938711 93.70069970430424 14.505790552711403 91.90022721621506 13.48095703125 90.09716796875 C11.571920346343177 86.7387541911807 9.646096572904867 83.39319573736421 7.67578125 80.0703125 C0.9247077263008805 68.56864218836793 -4.995871775827396 56.326151308784134 -7 43 C-7.109570312500011 42.278125 -7.219140624999994 41.556250000000006 -7.33203125 40.8125 C-7.627712179473377 38.54167046164437 -7.836576007091935 36.2840448532628 -8 34 C-8.054140625000002 33.2536328125 -8.108281250000005 32.507265625 -8.1640625 31.73828125 C-8.548408466992015 21.168767157719913 -6.461579999542863 10.102633332571443 -1 1 C-0.6700000000000159 0.6700000000000017 -0.3400000000000034 0.3400000000000034 0 0 Z "
         transform="translate(139,61)"
         id="body_shadow_2"
         inkscape:label="body_shadow"
         style="fill:#da5780;stroke:none" />
      <path
         d="M0 0 C8.091719906329217 0.7409569100272364 12.405429994603537 6.16200538927194 17.73046875 11.84765625 C22.18124769221322 17.276890616506748 29 27.828013917103164 29 35 C29.83402343749998 35.2410546875 30.668046875000016 35.48210937499999 31.52734375 35.73046875 C51.51434399867628 43.037302361720805 66.30738766468778 59.97001439124841 75.375 78.625 C75.72151611328127 79.32979492187502 76.06803222656254 80.03458984374998 76.425048828125 80.7607421875 C78.65779929668304 85.55664763338183 79.58501801282301 89.72380044874961 80 95 C79.54689453125002 95.0373828125 79.54689453125002 95.0373828125 77.25390625 95.2265625 C65.64947455368394 96.47910433388807 58.98597875767956 99.94903963524936 51.57421875 108.8984375 C49.152846180401355 112.1309398385709 47.01783894954235 115.50365232706022 45 119 C44.454726562500014 118.7950390625 43.90945312500003 118.59007812499999 43.34765625 118.37890625 C37.84567235335834 116.41324020829381 32.82351810342925 115.46218397646265 27 115 C26.853046875000018 114.12859375 26.70609374999998 113.25718749999999 26.5546875 112.359375 C24.265007424359908 100.20038425349736 20.184729887475612 87.81474076180928 9.6796875 80.3515625 C7.1698232902248265 78.77810022781676 4.627916523712827 77.36568890208696 2 76 C1.3980078124999977 75.657109375 0.7960156249999955 75.31421875000001 0.17578125 74.9609375 C-7.858396550472605 71.09731042291878 -19.92690022098168 71.89101574576551 -28.4375 74.0625 C-39.59213899671471 78.15316557434699 -46.57840707418802 86.36761061128198 -53 96 C-53.99000000000001 95.67000000000002 -54.98000000000002 95.34 -56 95 C-57.29111726336504 78.4818965988533 -57.29111726336504 78.4818965988533 -51.2421875 71.23046875 C-45.25837238020324 65.27792792525446 -38.76878289770298 60.44356961142128 -31.6875 55.875 C-26.083696421146158 52.22888884025224 -21.18839878893675 48.565196366810284 -19 42 C-18.065393733035762 34.48309530998738 -19.458258542840497 29.9593153059093 -24 24 C-24.660000000000025 23.010000000000005 -25.319999999999993 22.019999999999996 -26 21 C-23.029999999999973 21 -20.060000000000002 21 -17 21 C-18.980000000000018 16.710000000000008 -20.95999999999998 12.420000000000002 -23 8 C-21 7 -21 7 -17.375 8.0625 C-10.339654039174206 10.858762732161239 -5.283070652482252 15.716929347517734 0 21 C0.9900000000000091 21.33 1.9800000000000182 21.659999999999997 3 22 C2.2435530085959954 14.687679083094537 2.2435530085959954 14.687679083094537 0.9375 11 C-0.26274473377168306 7.159216851930665 -0.13835917619297788 4.01241610959579 0 0 Z "
         transform="translate(336,78)"
         id="left_wing"
         inkscape:label="left_wing"
         style="fill:#f48498;stroke:none" />
      <path
         d="M0 0 C7.2114517699607745 5.254440694841321 11.802799173220762 13.429494976574176 13.6640625 22.08984375 C14.867446606201497 32.96227922114579 12.685524640707115 42.379149964218186 6.3828125 51.28515625 C1.0944124050074606 57.85725512323765 -5.41929747253738 62.961459810550025 -13.95849609375 64.30908203125 C-22.19452761145442 65.09057467704406 -29.894093503857846 64.55689394542182 -37 60 C-37.69480468749998 59.587500000000006 -38.38960937500002 59.17500000000001 -39.10546875 58.75 C-46.5844290280574 53.81079921599212 -51.031916455418525 45.90472776566989 -53.52734375 37.40234375 C-55.542708960245875 27.158958590485838 -53.745971903336056 17.468508512126732 -48.52734375 8.45703125 C-42.928682267099646 0.5553742634952812 -34.871557445024905 -4.174155950274354 -25.55859375 -6.5859375 C-15.92538017959646 -8.144900306813412 -8.10173572731594 -5.107111346732125 0 0 Z "
         transform="translate(341,164)"
         id="glasspane"
         inkscape:label="glasspane"
         style="fill:#88c1e9;stroke:none" />
      <path
         d="M0 0 C-4.1274810837678615 11.006616223381002 -11.613568533716204 19.31347346563001 -19.6650390625 27.61376953125 C-20.74231486153724 28.73241839499059 -21.79346719760599 29.87619037352664 -22.8359375 31.02734375 C-41.61501791855375 51.28396602889677 -70.9574788524302 62.49556947007727 -98 65 C-101.16863869280422 65.10154389465043 -104.33020707046342 65.0960564398078 -107.5 65.0625 C-108.322421875 65.05798828125 -109.14484375 65.05347656250001 -109.9921875 65.048828125 C-111.99482396050806 65.03718488976449 -113.99742226580852 65.01925555513645 -116 65 C-115.63189208984375 64.50951171874999 -115.26378417968749 64.01902343749998 -114.884521484375 63.513671875 C-113.89076055366388 62.18792322062194 -112.89977199302814 60.860095725862834 -111.91015625 59.53125 C-110.56255245111751 57.74546827878146 -109.19317925144662 55.97601359541886 -107.80859375 54.21875 C-102.57862072876532 47.493234778107706 -98.40295282297836 40.81581422567933 -95 33 C-94.68289062500003 32.288437499999986 -94.36578125 31.576874999999973 -94.0390625 30.84375 C-91.11174649297175 23.308085031412418 -90.7788328936823 14.980746475262322 -90 7 C-85.8496631825551 13.225505226167343 -86.81632600573892 20.05456711327247 -86.8125 27.3125 C-86.80025390625002 28.523574218750014 -86.78800781249998 29.734648437500027 -86.775390625 30.982421875 C-86.7654556846598 37.03280054219135 -86.8721361415814 42.3060718096861 -89 48 C-58.471159232046716 40.39733929437443 -35.72196561733574 28.130780883618456 -14 5 C-13.670000000000016 4.339999999999975 -13.340000000000032 3.680000000000007 -13 3 C-14.649999999999977 2.670000000000016 -16.30000000000001 2.339999999999975 -18 2 C-18 1.670000000000016 -18 1.339999999999975 -18 1 C-15.562578687437167 0.8321087410780592 -13.125074539254001 0.6656386739254572 -10.6875 0.5 C-9.997207031250014 0.452304687499975 -9.306914062500027 0.4046093750000068 -8.595703125 0.35546875 C-5.723376414756558 0.1612051077613046 -2.879862122347049 0 0 0 Z "
         transform="translate(362,287)"
         id="body_shadow_5"
         inkscape:label="body_shadow"
         style="fill:#da5780;stroke:none" />
      <path
         d="M0 0 C0.8688281249999932 0.006445312500005684 1.7376562499999864 0.012890625000011369 2.6328125 0.01953125 C4.875 0.1875 4.875 0.1875 6.875 1.1875 C13.040266322750028 19.309646463841062 5.090331336450561 42.1790783188149 -1.125 59.1875 C-1.454999999999984 59.8475 -1.785000000000025 60.50749999999999 -2.125 61.1875 C-7.247132405174625 61.82776655064683 -10.119263929707245 60.46763748287066 -14.234375 57.671875 C-19.885675769553984 53.234903321424554 -22.821746977442785 47.6896468051977 -24.8125 40.8125 C-26.121208342969112 29.81934991905962 -24.436284725988912 19.24973354233802 -17.8046875 10.16015625 C-12.894849066818267 4.393950648240036 -7.849532687522981 -0.12887292472052536 0 0 Z "
         transform="translate(411.125,180.8125)"
         id="path1"
         inkscape:label="glasspane"
         style="fill:#88c1e9;stroke:none" />
      <path
         d="M0 0 C0.9900000000000091 0.6599999999999966 1.9800000000000182 1.3199999999999932 3 2 C2 5 2 5 0.43359375 6.05908203125 C-0.2251171875000182 6.372163085937501 -0.8838281249999795 6.685244140625002 -1.5625 7.0078125 C-2.2766406250000273 7.354570312500002 -2.9907812499999977 7.701328125000003 -3.7265625 8.05859375 C-4.476796874999991 8.4105078125 -5.227031249999982 8.762421875000001 -6 9.125 C-13.923267326732685 12.923267326732685 -13.923267326732685 12.923267326732685 -15 14 C-16.456209794801964 14.130536734593804 -17.915290256509593 14.229830354333075 -19.375 14.3125 C-23.707653616095683 14.76784257748777 -23.707653616095683 14.76784257748777 -26.125 16.6875 C-27.32390155135863 19.85602552859062 -26.977951171552775 21.7867318648981 -26 25 C-23 27 -23 27 -19.5625 27.1875 C-18.386874999999975 26.795625 -17.211250000000007 26.403750000000002 -16 26 C-15.21875 24.203124999999986 -15.21875 24.203124999999986 -14.5625 21.9375 C-12.618799729134821 16.48990955475014 -8.955349227913302 14.873238943205735 -4 12.5 C-0.049614680768286235 10.629422287573277 3.728031673492069 8.978205136711452 8 8 C9.708236200694103 10.512112059844242 10.010794265611423 12.187100603931668 10.1875 15.25 C7.838138278864108 22.669037014113243 0.9678484032687038 26.49352287369493 -5.4375 30.375 C-11.520996684901604 34.09174305889354 -16.143986198005905 38.83237033905442 -21 44 C-22.328782747264597 45.337868441263 -23.660578482174287 46.67278277846427 -25 48 C-25.424101562500027 47.408320312499995 -25.848203124999998 46.81664062499999 -26.28515625 46.20703125 C-33.15242445544919 36.955085294087155 -38.736533505442026 33.505255657921566 -50 31 C-48.193278617951904 21.986247170880972 -39.96124450101695 15.409709944678283 -32.85546875 10.22265625 C-23.708538501768032 4.195310633796609 -11.008676463951588 -2.540463799373441 0 0 Z "
         transform="translate(301,101)"
         id="cyber_implant_7"
         inkscape:label="cyber_implant"
         style="fill:#859900;stroke:none" />
      <path
         d="M0 0 C7.8994422679053 2.7648047937668707 15.42729554313621 8.988519832808862 20 16 C20.125 19.187499999999943 20.125 19.187499999999943 20 22 C21.1875 23.8125 21.1875 23.8125 23 25 C23.825000000000003 25.12375 24.650000000000006 25.247500000000002 25.5 25.375 C28 26 28 26 29.8125 28.5625 C30.008437500000014 28.964687499999997 30.008437500000014 28.964687499999997 31 31 C28.03 31.659999999999997 25.060000000000002 32.31999999999999 22 33 C20.76059652898357 37.358432073574306 21.337467143841934 40.45636988961411 22.4375 44.8125 C22.7249609375 45.97394531250001 23.012421875 47.135390625000014 23.30859375 48.33203125 C23.5367578125 49.2124609375 23.764921875 50.092890624999995 24 51 C9.324533787692559 49.384007561768954 -6.588462072079835 41.411537927920165 -17 31 C-17 30.00999999999999 -17 29.02000000000001 -17 28 C-14.689999999999998 27.504999999999995 -14.689999999999998 27.504999999999995 -3 25 C-5.943397758979131 20.408299495992566 -9.203657788875745 16.23315905204319 -12.70703125 12.05078125 C-13.133710937499998 11.3740234375 -13.560390624999997 10.697265625 -14 10 C-13.670000000000002 9.009999999999991 -13.340000000000003 8.02000000000001 -13 7 C-9.32968792198244 6.464746155289106 -7.159236180892918 6.239251256289037 -4 8.3125 C-0.01481233495614731 11.79953920691338 3.620568287606048 15.641597286659959 7.32421875 19.421875 C9.695717151997002 21.65517419442142 12.222920586083418 23.306658893953312 15 25 C11.858558955428919 18.89291631481194 8.121150412137098 14.930636269915624 2.982421875 10.451171875 C1.38671875 8.96484375 1.38671875 8.96484375 -1 6 C-0.85546875 2.62890625 -0.85546875 2.62890625 0 0 Z "
         transform="translate(101,224)"
         id="body_part_8"
         inkscape:label="body"
         style="fill:#f48498;stroke:none" />
      <path
         d="M0 0 C0.6599999999999966 0 1.3199999999999932 0 2 0 C5.070109779847513 7.065607259294424 8.072108322362311 14.135865264949615 10.875 21.3125 C22.838500026241746 51.486276731758366 39.50811518721818 80.28784358961477 65 101 C66.31595035242361 102.10005224772914 67.62855607603103 103.20412006438113 68.9375 104.3125 C69.50339843749998 104.78300781249999 70.06929687500002 105.253515625 70.65234375 105.73828125 C72.616084709713 107.57679814851389 72.98737304427993 108.6919022804305 73.09765625 111.3828125 C73.0860546875 112.28773437500001 73.07445312499999 113.19265625 73.0625 114.125 C73.05347656250001 115.03507812499998 73.04445312500002 115.94515625 73.03515625 116.8828125 C73.0235546875 117.581484375 73.01195312499999 118.28015625 73 119 C44.45332682228383 98.87827621284188 20.7011063061899 68.05732532779967 8.8173828125 35.18798828125 C7.820622775829321 32.51983910304136 6.751666247605328 29.88490953996849 5.6796875 27.24609375 C5.26871826171876 26.226284179687497 4.857749023437492 25.206474609374993 4.434326171875 24.15576171875 C3.6221731679436004 22.140884381798614 2.804880515267456 20.12806869308686 1.981689453125 18.11767578125 C-0.17294431758088535 12.698629388939224 -1.8067093238764471 7.858707045261994 -2 2 C-1.3400000000000034 1.3400000000000034 -0.6800000000000068 0.6799999999999997 0 0 Z "
         transform="translate(139,61)"
         id="body_part_9"
         inkscape:label="body"
         style="fill:#f48498;stroke:none" />
      <path
         d="M0 0 C4.377551668077103 3.8015580275406364 6.808470228403564 8.902631360147552 7.828125 14.58984375 C8.107808271644103 20.912683426811356 6.655314979448974 26.643637133396453 3.375 32.0625 C0.15181625707248259 35.565960590138616 -3.6809402530274156 39.7096755509522 -8.61328125 40.30078125 C-12.472913388333325 40.42403000735854 -14.978468459354104 40.407316821677796 -18.4375 38.5625 C-23.303895553074938 33.00090508220009 -25.11539823550615 28.145205550701462 -24.765625 20.75 C-24.71921875000001 20.19312500000001 -24.672812499999992 19.63624999999999 -24.625 19.0625 C-16.360177865612656 20.03483201581028 -16.360177865612656 20.03483201581028 -12.625 22.0625 C-12.294999999999987 22.743124999999992 -11.965000000000003 23.423749999999984 -11.625 24.125 C-10.625 26.0625 -10.625 26.0625 -8.3125 27 C-4.737706125213094 27.083134741274108 -3.2664005987413134 26.477494833134898 -0.625 24.0625 C-0.125 20.5 -0.125 20.5 -0.625 17.0625 C-4.11435471260927 14.736263524927153 -5.529825976505293 14.811775059786044 -9.625 15.0625 C-10.250195312500011 15.261015624999999 -10.875390624999994 15.459531249999998 -11.51953125 15.6640625 C-14.228381753146408 16.17668355996463 -15.805163201123406 15.569792940763449 -18.375 14.625 C-19.174218749999994 14.337539062500014 -19.97343749999999 14.050078124999999 -20.796875 13.75390625 C-21.40015625000001 13.525742187499986 -22.00343749999999 13.297578125000001 -22.625 13.0625 C-22.087520909531122 8.493927731014452 -20.558359889816245 5.597574739009303 -17.625 2.0625 C-11.612440112836197 -2.3031413093754622 -7.000547182538639 -2.5001954223352243 0 0 Z "
         transform="translate(244.625,148.9375)"
         id="cyber_dome_10"
         inkscape:label="cyber_dome"
         style="fill:#268bd2;stroke:none" />
      <path
         d="M0 0 C7.7200773972729735 -0.4119408887872851 12.551901637071694 0.04448711749000722 18.625 5.25 C25.215106886843557 12.880650079503084 27.34301049261569 20.329785814136926 26.9375 30.3125 C25.88388187453978 40.67913351027502 21.981970623626637 50.096674055241806 14 57 C8.647241370336275 60.85311050642463 3.512055013364801 61.86662329075196 -3 61 C-6.0625 60 -6.0625 60 -8 59 C-8 58.34 -8 57.68000000000001 -8 57 C-7.4315234375000045 56.780859375000006 -6.863046875000009 56.56171875000001 -6.27734375 56.3359375 C1.794642467056832 53.020898085315565 7.633632248538618 49.15606183808811 11.22265625 40.9921875 C15.11468996952209 31.017628721325252 15.170701046246222 22.304205718570245 11.1328125 12.37890625 C8.498356989690507 6.846549678350044 5.099998541516584 4.245453617328735 0 1 C0 0.6699999999999875 0 0.3400000000000034 0 0 Z "
         transform="translate(245,140)"
         id="cyber_implant_11"
         inkscape:label="cyber_implant"
         style="fill:#859900;stroke:none" />
      <path
         d="M0 0 C0.3299999999999841 0.3300000000000125 0.3299999999999841 0.3300000000000125 2 2 C1.660830050889217 5.188197521641257 1.0140631706705392 7.957810487988411 0 11 C0.3299999999999841 11.164999999999992 0.3299999999999841 11.164999999999992 2 12 C0.5667021750489312 17.035911276855074 -1.6252447006341129 21.022591959947448 -4.4375 25.375 C-4.635048828125008 25.69533203124999 -4.635048828125008 25.69533203124999 -5.634765625 27.31640625 C-6.671878779740439 28.935062055568295 -7.828594003756393 30.475710557472695 -9 32 C-9.990000000000009 32 -10.980000000000018 32 -12 32 C-11.835000000000008 31.504999999999995 -11.835000000000008 31.504999999999995 -11 29 C-12.9375 29.75 -12.9375 29.75 -15 31 C-15.75 33.12499999999997 -15.75 33.12499999999997 -16 35 C-15.340000000000003 35.329999999999984 -14.680000000000007 35.66 -14 36 C-17.723997440200662 44.791705296968615 -28.638967368188844 49.59829507485199 -37 53 C-40.37173921735581 54.18705425629753 -43.76884604804951 55.26891753037762 -47.1875 56.3125 C-48.01870361328125 56.56717041015622 -48.84990722656249 56.8218408203125 -49.706298828125 57.084228515625 C-59.67857799612062 59.986999452654345 -69.21782333934331 60.136922134249346 -79.5625 60.0625 C-80.76197265625001 60.057988281250005 -81.96144531249999 60.05347656250001 -83.197265625 60.048828125 C-86.13156359302377 60.037137694848525 -89.06575448679541 60.02075138269595 -92 60 C-88.80146076638962 58.1852933503057 -85.9209273859071 57.502868140409305 -82.30078125 56.921875 C-81.182197265625 56.73391357421872 -80.06361328125001 56.54595214843749 -78.9111328125 56.352294921875 C-77.72358398437501 56.15353759765628 -76.53603515625 55.95478027343751 -75.3125 55.75 C-51.18187636466564 51.464690017632904 -27.30144925150887 43.08453829219417 -11.91796875 22.81640625 C-7.063544004749815 15.68801471980575 -2.490961303884518 8.303204346281717 0 0 Z "
         transform="translate(226,204)"
         id="body_part_12"
         inkscape:label="body"
         style="fill:#f48498;stroke:none" />
      <path
         d="M0 0 C1.9375 0.375 1.9375 0.375 4 1 C4.329999999999998 1.6599999999999966 4.659999999999997 2.319999999999993 5 3 C7.328095425141186 3.684733948570937 9.662377769045591 4.348531509406143 12 5 C13.051874999999995 5.5362499999999955 14.103750000000005 6.072499999999991 15.1875 6.625 C18 8 18 8 22 8 C22.12375 9.299374999999998 22.247500000000002 10.598749999999995 22.375 11.9375 C22.89863328068361 16.71849951928516 23.863138353906038 21.33114100681803 25 26 C9.961339028022891 24.34401428477588 -5.037918572762663 16.21466678447115 -16 6 C-12.276256989879897 4.758752329959975 -9.273107031697307 5.026767780790237 -5.4375 5.4375 C-4.6524609374999955 5.518710937500003 -3.867421875000005 5.599921875000007 -3.05859375 5.68359375 C-1 6 -1 6 1 7 C0.6700000000000017 4.689999999999998 0.3400000000000034 2.3799999999999955 0 0 Z "
         transform="translate(100,249)"
         id="body_shadow_13"
         inkscape:label="body_shadow"
         style="fill:#da5780;stroke:none" />
      <path
         d="M0 0 C0.3299999999999841 0.16500000000002046 0.3299999999999841 0.16500000000002046 2 1 C0.9584375000000023 1.5826562500000136 -0.08312499999999545 2.1653125000000273 -1.15625 2.765625 C-11.72225883629261 8.773358012947824 -21.48491263209627 15.442013277740898 -31 23 C-32.033828125000014 23.808242187500014 -33.06765625 24.616484375000027 -34.1328125 25.44921875 C-37.26529777419333 28.23602104434366 -39.69620399866426 31.14977043190106 -42.1875 34.5 C-42.61224609375 35.055585937499984 -43.036992187500005 35.61117187499997 -43.474609375 36.18359375 C-50 44.80969333203734 -50 44.80969333203734 -50 49 C-51.78881735556925 50.005088012493786 -53.581146957271045 51.00392735930734 -55.375 52 C-56.37273437499999 52.55687499999999 -57.37046875 53.11374999999998 -58.3984375 53.6875 C-61 55 -61 55 -63 55 C-62.448849193870046 50.42968793070702 -60.61856431566194 47.473063606739856 -58.0625 43.6875 C-57.35222656249999 42.61886718749997 -56.641953125 41.550234375 -55.91015625 40.44921875 C-55.279804687500004 39.640976562499986 -54.64945312500001 38.83273437499997 -54 38 C-53.34 38 -52.68000000000001 38 -52 38 C-51.87109375 37.70867187499999 -51.87109375 37.70867187499999 -51.21875 36.234375 C-44.41749599750591 23.765409328760825 -28.913883080314974 15.858789263368578 -17 9 C-15.67689676837648 8.229486941583957 -14.35397860171534 7.4586560029763405 -13.03125 6.6875 C-3.50644329896906 1.1688144329896772 -3.50644329896906 1.1688144329896772 0 0 Z "
         transform="translate(178,319)"
         id="body_shadow_14"
         inkscape:label="body_shadow"
         style="fill:#da5780;stroke:none" />
      <path
         d="M0 0 C8.091719906329217 0.7409569100272364 12.405429994603537 6.16200538927194 17.73046875 11.84765625 C22.18124769221322 17.276890616506748 29 27.828013917103164 29 35 C29.83402343749998 35.2410546875 30.668046875000016 35.48210937499999 31.52734375 35.73046875 C35.53133044218771 37.194243412498324 38.94741440359593 39.075974091308495 42.5625 41.3125 C43.25343750000002 41.73966308593751 43.94437499999998 42.166826171875 44.65625 42.60693359375 C52.10071345486574 47.40997847873564 58.04578175041564 53.49522047391298 64 60 C63.83499999999998 60.329999999999984 63.83499999999998 60.329999999999984 63 62 C48.506259389083596 50.96194291437155 48.506259389083596 50.96194291437155 43.9375 45.5625 C42 44 42 44 38.875 44.0625 C33.23416109132836 43.97151872727949 29.23704024581201 42.83652400367056 25 39 C22.721833071900335 34.463871615446834 21.226946079313336 29.812902258372617 19.685546875 24.98876953125 C17.074274412907357 17.413475558241927 13.400317799459458 11.724044090077228 7 7 C7 6.340000000000003 7 5.680000000000007 7 5 C6.339999999999975 5 5.680000000000007 5 5 5 C3.375 3.5 3.375 3.5 2 2 C1.339999999999975 2.6599999999999966 0.6800000000000068 3.319999999999993 0 4 C0 2.680000000000007 0 1.3599999999999994 0 0 Z "
         transform="translate(336,78)"
         id="body_part_15"
         inkscape:label="body"
         style="fill:#f48498;stroke:none" />
      <path
         d="M0 0 C0.6599999999999966 0.3299999999999841 1.3199999999999932 0.660000000000025 2 1 C1.443125000000009 1.5942578125000182 0.8862499999999898 2.1885156249999795 0.3125 2.80078125 C-11.184674499221273 15.288421795606894 -21.209717052346562 28.60204851263535 -24.19921875 45.671875 C-25 48 -25 48 -26.76953125 49.390625 C-29.50371306822278 50.13761688028501 -31.296156937605247 49.751067517331876 -34 49 C-32.277476674836734 30.31062192197851 -16.31687542944553 13.609777976813575 -2.5625 2.0625 C-1.716875000000016 1.3818749999999795 -0.8712500000000034 0.7012500000000159 0 0 Z "
         transform="translate(130,375)"
         id="body_shadow_16"
         inkscape:label="body_shadow"
         style="fill:#da5780;stroke:none" />
      <path
         d="M0 0 C0.6599999999999966 0.3299999999999841 1.3199999999999932 0.660000000000025 2 1 C1.0821875000000034 1.6406640624999795 0.16437500000000682 2.281328125000016 -0.78125 2.94140625 C-18.93419734888002 15.690041029366114 -18.93419734888002 15.690041029366114 -22.8125 23.25 C-24.565928169429696 26.46380427711631 -25.45837888120448 27.749096458144663 -28.81640625 29.3046875 C-31.5446758835063 30.0364073250783 -34.20355392629523 30.611881149912847 -37 31 C-35.831089325565756 22.644453327192252 -28.610666087979382 17.128406382108153 -22.234375 12.16796875 C-17.965558831482895 9.306624579073684 -13.533686638317818 6.851683900979481 -9 4.4375 C-8.150185546875008 3.983266601562491 -7.300371093750016 3.529033203124982 -6.4248046875 3.06103515625 C-5.624619140624986 2.6477294921875227 -4.824433593750001 2.2344238281249886 -4 1.80859375 C-3.2781249999999886 1.435329589843775 -2.5562500000000057 1.0620654296874932 -1.8125 0.677490234375 C-1.2143749999999898 0.45391845703125 -0.616250000000008 0.2303466796875 0 0 Z "
         transform="translate(186,294)"
         id="body_shadow_18"
         inkscape:label="body_shadow"
         style="fill:#da5780;stroke:none" />
      <path
         d="M0 0 C-1.6309159271863223 5.980025066349924 -6.018492055281058 9.948021002752228 -10.9921875 13.37109375 C-15.739516911538601 16.040312037810622 -18.73489180471526 16.316277048821178 -24 15 C-20.030641813219802 4.730651296587041 -20.030641813219802 4.730651296587041 -16 1 C-10.699548950375856 -0.4526637234932309 -5.445395298679898 0 0 0 Z "
         transform="translate(266,359)"
         id="legs_19"
         inkscape:label="legs"
         style="fill:#b58900;stroke:none" />
      <path
         d="M0 0 C2.9063378051476434 2.7134117409943883 4.866361486211673 5.2973465485408155 6.8125 8.75 C11.616621246623936 16.54616167215289 18.122240526415993 22.855694430191704 24.507080078125 29.365234375 C26 31 26 31 28 34 C26.349999999999994 35.31999999999999 24.69999999999999 36.639999999999986 23 38 C14.595080676559718 34.85762025294798 9.412808759011057 22.270101438241056 5.5625 14.625 C5.232822265625003 13.971928710937505 4.903144531250007 13.318857421875009 4.5634765625 12.64599609375 C2.5477140280328285 8.505994775573186 1.146686885468398 4.45997813744998 0 0 Z "
         transform="translate(131,267)"
         id="body_shadow_20"
         inkscape:label="body_shadow"
         style="fill:#da5780;stroke:none" />
      <path
         d="M0 0 C9.287410897062003 7.159045899818636 14.79725643179853 16.176867332424933 20 26.5 C20.398159179687497 27.289873046875016 20.796318359374993 28.079746093750003 21.20654296875 28.8935546875 C24 34.608733443708616 24 34.608733443708616 24 38 C20.59912693535236 36.59274218014579 18.95542897073142 35.112391111747485 17 32 C16.55078125 29.52734375 16.55078125 29.52734375 16.3125 26.9375 C15.84375 24.25390625 15.84375 24.25390625 15 22 C13.09630146112761 20.81018841320474 11.338960972029597 20.38206270917061 9.17578125 19.8046875 C4.864786845396949 18.21031614030838 2.120107324925172 14.99384132157158 0 11 C-0.5475619299692909 7.250927326336409 -0.43495032282949353 3.7557615177657624 0 0 Z "
         transform="translate(115,217)"
         id="body_part_21"
         inkscape:label="body"
         style="fill:#f48498;stroke:none" />
      <path
         d="M0 0 C-2.702440761898515 8.352998718595416 -8.975275467365009 13.294379097811941 -16.4375 17.3125 C-20.03758310118718 18.278375953977047 -23.277251775414356 18.126194855070707 -27 18 C-25.73676437464752 14.210293123942563 -24.503991613037982 13.827451089361148 -21.125 11.8125 C-15.966861805104912 8.665161440402983 -11.181684410984644 5.2072867225168125 -6.41015625 1.50390625 C-4 0 -4 0 0 0 Z "
         transform="translate(240,360)"
         id="cyber_implant_22"
         inkscape:label="cyber_implant"
         style="fill:#859900;stroke:none" />
      <path
         d="M0 0 C1.9375 0.375 1.9375 0.375 4 1 C4.329999999999998 1.6599999999999966 4.659999999999997 2.319999999999993 5 3 C7.330109091481447 3.6778499175218826 9.663598240633746 4.3441679271954285 12 5 C14 7 14 7 14.3125 10.5 C14.260937499999997 11.077499999999986 14.260937499999997 11.077499999999986 14 14 C10.530761194694009 16.312825870203994 9.077944249583282 16.424785859331564 5 16 C3.1875 14.9375 3.1875 14.9375 2 13 C1.59952555722316 10.677248231894282 1.2602896031476831 8.342606428329077 1 6 C0.6700000000000017 5.6699999999999875 0.3400000000000034 5.340000000000003 0 5 C-0.04063832075785001 3.333828848928249 -0.04272100132091339 1.6661190515158069 0 0 Z "
         transform="translate(100,249)"
         id="outline_23"
         inkscape:label="glasses_frame"
         style="fill:#002b36;stroke:none" />
      <path
         d="M0 0 C4.75 1.875 4.75 1.875 7 3 C6.670000000000002 5.310000000000002 6.340000000000003 7.6200000000000045 6 10 C1.710000000000008 10 -2.5799999999999983 10 -7 10 C-7.329999999999998 8.02000000000001 -7.659999999999997 6.039999999999992 -8 4 C-7.525625000000005 3.8556250000000034 -7.525625000000005 3.8556250000000034 -5.125 3.125 C-2 2 -2 2 0 0 Z "
         transform="translate(91,218)"
         id="cyber_implant_24"
         inkscape:label="cyber_implant"
         style="fill:#859900;stroke:none" />
      <path
         d="M0 0 C2.625 0.3125 2.625 0.3125 4.5625 2 C5.625 4.3125 5.625 4.3125 4.875 7 C3.625 9.3125 3.625 9.3125 2.625 10.3125 C0.25 10.625 0.25 10.625 -2.375 10.3125 C-4.3125 8.625 -4.3125 8.625 -5.375 6.3125 C-3.751111817026697 0.493567344345621 -3.751111817026697 0.493567344345621 0 0 Z "
         transform="translate(239.375,80.6875)"
         id="body_part_25"
         inkscape:label="body"
         style="fill:#f48498;stroke:none" />
      <path
         d="M0 0 C9.118299506721371 1.7875080530797334 15.858978629846149 10.63246554652082 22 17 C21.670000000000016 17.659999999999997 21.339999999999975 18.319999999999993 21 19 C4.901886792452842 6.74009433962263 4.901886792452842 6.74009433962263 0 0 Z "
         transform="translate(378,121)"
         id="body_part_26"
         inkscape:label="body"
         style="fill:#f48498;stroke:none" />
      <path
         d="M0 0 C3.245172632003573 2.715959864322997 4.8589469622510535 6.274180031643056 6.6875 10 C7.00783203124999 10.629062500000003 7.328164062500008 11.258125000000007 7.658203125 11.90625 C9.093119023296026 14.794438929619304 10 16.732468605819037 10 20 C6.59255741776758 18.590023759076246 4.985663915129749 17.094822232845274 3 14 C2.3046875 11.5625 2.3046875 11.5625 1.875 9 C1.3471412675608008 5.962497118595422 0.786934606988325 2.9820679843768687 0 0 Z "
         transform="translate(129,235)"
         id="body_part_27"
         inkscape:label="body"
         style="fill:#f48498;stroke:none" />
      <path
         d="M0 0 C0.3300000000000125 0.9900000000000091 0.6599999999999966 1.9799999999999898 1 3 C-0.3199999999999932 4.319999999999993 -1.6399999999999864 5.639999999999986 -3 7 C-4.319999999999993 6.340000000000003 -5.639999999999986 5.680000000000007 -7 5 C-7 3.3499999999999943 -7 1.6999999999999886 -7 0 C-4.333358095368965 -1.3333209523155176 -2.833196965738324 -0.6710203339906684 0 0 Z "
         transform="translate(242,167)"
         id="cyber_implant_28"
         inkscape:label="cyber_implant"
         style="fill:#859900;stroke:none" />
      <path
         d="M0 0 C6.747422268420735 0 10.466901410481057 4.577710487113734 15 9 C14.670000000000016 9.659999999999997 14.339999999999975 10.319999999999993 14 11 C11.506384291223071 9.796185519900803 9.318569172207901 8.54571278147192 7 7 C7 6.340000000000003 7 5.680000000000007 7 5 C6.339999999999975 5 5.680000000000007 5 5 5 C3.375 3.5 3.375 3.5 2 2 C1.339999999999975 2.6599999999999966 0.6800000000000068 3.319999999999993 0 4 C0 2.680000000000007 0 1.3599999999999994 0 0 Z "
         transform="translate(336,78)"
         id="body_part_29"
         inkscape:label="body"
         style="fill:#f48498;stroke:none" />
      <path
         d="M0 0 C2.125 0.375 2.125 0.375 4 1 C4.382187670824578 2.656146573573295 4.713951017214981 4.324570243687745 5 6 C4 7 4 7 1.4375 7.0625 C1.035312499999975 7.052187500000002 1.035312499999975 7.052187500000002 -1 7 C-1.625 4.625 -1.625 4.625 -2 2 C-1.339999999999975 1.3400000000000034 -0.6800000000000068 0.6800000000000068 0 0 Z "
         transform="translate(279,118)"
         id="body_shadow_30"
         inkscape:label="body_shadow"
         style="fill:#da5780;stroke:none" />
      <path
         d="M0 0 C3.6875475725140063 0.49831723952891593 5.604906616969529 1.1006764310683934 8 4 C6 6 6 6 3.4375 6.1875 C1 6 1 6 0 5 C-0.04063832075785001 3.333828848928249 -0.04272100132091339 1.6661190515158069 0 0 Z "
         transform="translate(80,213)"
         id="cyber_implant_31"
         inkscape:label="cyber_implant"
         style="fill:#859900;stroke:none" />
      <path
         d="M0 0 C-0.3299999999999983 1.6499999999999773 -0.6599999999999966 3.3000000000000114 -1 5 C-2.6500000000000057 4.670000000000016 -4.299999999999997 4.339999999999975 -6 4 C-6 2.680000000000007 -6 1.3600000000000136 -6 0 C-3.5090718940470964 -1.2454640529764447 -2.589192668788357 -0.776757800636517 0 0 Z "
         transform="translate(111,257)"
         id="cyber_implant_32"
         inkscape:label="cyber_implant"
         style="fill:#859900;stroke:none" />
      <path
         d="M0 0 C1.6754297563122549 0.2860489827850188 3.343853426426705 0.6178123291753934 5 1 C4.6699999999999875 2.6500000000000057 4.340000000000003 4.300000000000011 4 6 C2.680000000000007 5.6699999999999875 1.3599999999999994 5.340000000000003 0 5 C-0.5625 3.0625 -0.5625 3.0625 -1 1 C-0.6700000000000017 0.6699999999999875 -0.3400000000000034 0.3400000000000034 0 0 Z "
         transform="translate(124,241)"
         id="cyber_implant_33"
         inkscape:label="cyber_implant"
         style="fill:#859900;stroke:none" />
      <path
         d="M0 0 C0.6599999999999966 0.6599999999999966 1.3199999999999932 1.3199999999999932 2 2 C1.625 5.125 1.625 5.125 1 8 C0.009999999999990905 7.6699999999999875 -0.9799999999999898 7.340000000000003 -2 7 C-1.3400000000000034 4.689999999999998 -0.6800000000000068 2.3799999999999955 0 0 Z "
         transform="translate(226,204)"
         id="body_part_34"
         inkscape:label="body"
         style="fill:#f48498;stroke:none" />
    </g>
  </g>
</svg>
