<?xml version='1.0' encoding='utf-8'?>
<svg xmlns="http://www.w3.org/2000/svg" xmlns:inkscape="http://www.inkscape.org/namespaces/inkscape" xmlns:sodipodi="http://sodipodi.sourceforge.net/DTD/sodipodi-0.dtd" width="100%" height="100%" viewBox="0 0 512 512" version="1.1" inkscape:label="Mascot Body - Sleeping Curled (Ground)" id="svg1" sodipodi:docname="sleep.svg" inkscape:version="1.4.4 (dcaf3e7d9e, 2026-05-05)">
  <defs id="defs1">
    <style>
    .mascot-beak, .mascot-eye, .mascot-particle { display: none; }

    /* Default fallback for standalone viewing &amp; unset attributes */
    .beak-default,
    .eyes-open { display: inline; }

    [data-beak] .beak-default { display: none; }
    [data-eyes] .eyes-open { display: none; }

    /* Beak visibility controls */
    [data-beak="default"] .beak-default,
    [data-beak="talk-closed"] .beak-talk-closed,
    [data-beak="talk-a"] .beak-talk-a,
    [data-beak="talk-e"] .beak-talk-e,
    [data-beak="talk-i"] .beak-talk-i,
    [data-beak="talk-o"] .beak-talk-o,
    [data-beak="talk-u"] .beak-talk-u,
    [data-beak="talk-t"] .beak-talk-t,
    [data-beak="talk-fv"] .beak-talk-fv,
    [data-beak="talk-wide"] .beak-talk-wide,
    [data-beak="smile"] .beak-smile,
    [data-beak="grin"] .beak-grin,
    [data-beak="smirk"] .beak-smirk,
    [data-beak="laugh"] .beak-laugh,
    [data-beak="pout"] .beak-pout,
    [data-beak="surprise"] .beak-surprise,
    [data-beak="shocked"] .beak-shocked,
    [data-beak="grimace"] .beak-grimace,
    [data-beak="dizzy"] .beak-dizzy,
    [data-beak="sleep"] .beak-sleep { display: inline; }

    /* Eyes visibility controls */
    [data-eyes="open"] .eyes-open,
    [data-eyes="default"] .eyes-open,
    [data-eyes="happy"] .eyes-happy,
    [data-eyes="laugh"] .eyes-laugh,
    [data-eyes="love"] .eyes-love,
    [data-eyes="heart"] .eyes-heart,
    [data-eyes="blink"] .eyes-blink,
    [data-eyes="sleepy"] .eyes-sleepy,
    [data-eyes="wink"] .eyes-wink,
    [data-eyes="wink-right"] .eyes-wink-right,
    [data-eyes="wink-left"] .eyes-wink-left,
    [data-eyes="squint"] .eyes-squint,
    [data-eyes="dizzy"] .eyes-dizzy,
    [data-eyes="shocked"] .eyes-shocked,
    [data-eyes="cry"] .eyes-cry,
    [data-eyes="sparkle"] .eyes-sparkle,
    [data-eyes="surprise"] .eyes-surprise { display: inline; }

    /* Particle visibility controls */
    [data-particle="cloud-thought"] .particle-cloud-thought,
    [data-particle="alert"] .particle-alert,
    [data-particle="bubble-alert"] .particle-alert,
    [data-particle="question"] .particle-question,
    [data-particle="bubble-question"] .particle-question,
    [data-particle="dizzy"] .particle-dizzy,
    [data-particle="bubble-dizzy"] .particle-dizzy,
    [data-particle="shock-lines"] .particle-dizzy,
    [data-particle="sweat-drop-right"] .particle-sweat-drop-right,
    [data-particle="drop-sweat-large"] .particle-sweat-drop-right,
    [data-particle="drop-tear"] .particle-sweat-drop-right,
    [data-particle="sweat-drop-left"] .particle-sweat-drop-left,
    [data-particle="bubbles"] .particle-bubbles,
    [data-particle="sleep-z"] .particle-sleep-z,
    [data-particle="sleep-z-large"] .particle-sleep-z-large,
    [data-particle="sleep-z-medium"] .particle-sleep-z-medium,
    [data-particle="sleep-z-small"] .particle-sleep-z-small { display: inline; }
</style>
  </defs>
  <sodipodi:namedview id="namedview1" pagecolor="#ffffff" bordercolor="#000000" borderopacity="0.25" inkscape:showpageshadow="2" inkscape:pageopacity="0.0" inkscape:pagecheckerboard="0" inkscape:deskcolor="#d1d1d1" inkscape:document-units="mm" inkscape:zoom="0.33507873" inkscape:cx="1269.8508" inkscape:cy="1780.1787" inkscape:window-width="1228" inkscape:window-height="1398" inkscape:window-x="0" inkscape:window-y="0" inkscape:window-maximized="1" inkscape:current-layer="g14" />
  <g id="mascot_character" class="mascot-character" inkscape:label="Mascot Character" transform="translate(-45.00, -120.00) scale(1.2500)">
    <g id="mascot_body" class="mascot-body" inkscape:label="Body">
      <g id="layer1" inkscape:label="Layer 1">
        <g id="mascot_body" inkscape:label="Sleeping Curled (Ground)">
          <path d="M0 0 C3.905295235317112 3.619541925415888 5.370495620242906 6.582959122267084 5.9375 11.875 C5.357937002213845 17.284254646004086 3.9190132963406654 20.229499883090114 -0.25 23.75 C-3.6675459154984935 25.492278309861973 -5.661934951427128 25.7345776236736 -9.4375 25.375 C-9.631503906250003 25.993105468750002 -9.631503906250003 25.993105468750002 -10.61328125 29.12109375 C-12.590050118442235 35.05140035532668 -15.098405380508893 40.72472899872554 -17.625 46.4375 C-18.088417968750008 47.49388671874999 -18.551835937499987 48.55027343750001 -19.029296875 49.638671875 C-20.161847704155093 52.21901964039455 -21.297976030095043 54.79772601140428 -22.4375 57.375 C-21.78813476562499 56.90666748046874 -21.138769531250006 56.43833496093751 -20.4697265625 55.955810546875 C-3.8019933906838332 44.0835166878004 13.737417675687567 39.17868392166906 34.0625 39.25 C34.61357421874999 39.24806640625002 34.61357421874999 39.24806640625002 37.40234375 39.23828125 C42.89494561711467 39.24487500974442 48.153833306420324 39.395844822714025 53.5625 40.375 C53.47999999999999 39.323125000000005 53.39750000000001 38.27125000000001 53.3125 37.1875 C53.599803491571606 32.80612175353281 54.51095580761003 31.42654419238997 57.5625 28.375 C61.28499641717647 26.513751791411778 65.50069163102836 26.93620610320599 69.5625 27.375 C74.00436061056052 28.877941111110943 77.35948215025167 30.95648859461113 80.5625 34.375 C80.9376171875 33.89289062500001 81.31273437499999 33.410781250000014 81.69921875 32.9140625 C87.1221414617329 26.220782578717547 87.1221414617329 26.220782578717547 91.5625 25.375 C99.01179187887232 25.61148545647214 103.44086487637333 27.96661475652178 108.625 33.375 C113.34957727506247 39.24980158548345 116.37682073902539 46.12969926418836 117.01171875 53.66015625 C117.95889912305836 64.46567352058884 120.46883838740007 69.65175806607758 128.8046875 76.74951171875 C130.12717617091994 77.83534116941621 131.4584127287647 78.91062801084001 132.79931640625 79.9736328125 C150.9531949683892 94.40222086936498 160.97568549189555 118.9569951617716 164.20703125 141.35546875 C164.5594801049977 144.68908449437401 164.66795261460612 148.0130845782203 164.76171875 151.36328125 C164.79305908203128 152.45213623046874 164.8243994140625 153.54099121093748 164.856689453125 154.662841796875 C164.9092770793187 156.8345042211717 164.9439170273845 159.00670016353342 164.957763671875 161.178955078125 C165.09583732900632 167.7176923204891 166.22946061884647 172.71308489802254 168.65869140625 178.76708984375 C170.06287431665635 182.81881373595968 170.1643301879165 186.62169979292042 170.0625 190.875 C170.05682006835934 191.28512329101562 170.05682006835934 191.28512329101562 170.028076171875 193.360595703125 C169.61282893718362 206.37467544547985 163.5689965687489 217.18563040447452 154.5625 226.375 C154.0571875 226.75656249999997 154.0571875 226.75656249999997 151.5 228.6875 C147.62581812284185 232.2319642705915 144.87149159464525 236.2431579528112 143.5625 241.375 C144.16337628011001 243.72613516942135 144.83741133579394 246.05915559289303 145.5625 248.375 C146.6065092328452 260.2839890397809 145.6060436579388 269.66042272824916 138 279.1875 C132.85480132170807 284.63083168581915 126.60533126762562 287.23458253950076 119.48828125 289.2421875 C116.16611713314876 290.5284726720786 114.72650224344693 291.91990270127144 112.375 294.5625 C107.63058463923994 299.53055783567805 102.50767771412865 302.9828035033798 96.5625 306.375 C95.84964843750004 306.7875 95.13679687499996 307.2 94.40234375 307.625 C87.43945971022617 311.39021761196517 80.40109981729847 313.3346499543246 72.5625 311.375 C68.82224484393709 309.58987822097 66.94695479050597 307.69816256722817 64.5625 304.375 C63.74007812499997 304.5799609375 62.91765624999999 304.784921875 62.0703125 304.99609375 C60.953984375000005 305.2655078125 59.83765625000001 305.534921875 58.6875 305.8125 C58.142226562500014 305.94591796875 58.142226562500014 305.94591796875 55.3828125 306.62109375 C47.7305407023386 308.1312046466755 40.228952802133676 308.4356130945146 32.44921875 308.48046875 C30.77278566275521 308.4953533716565 29.096353379621547 308.51032880959707 27.419921875 308.525390625 C24.82142014764949 308.5483251092596 22.22432421456574 308.5623781779647 19.625732421875 308.550048828125 C17.086732495279307 308.54124194734464 14.550437569758259 308.57005954575885 12.01171875 308.60546875 C11.237692108154306 308.59323776245117 10.463665466308584 308.58100677490233 9.666183471679688 308.5684051513672 C6.7356241536822665 308.6341691049982 4.320819536093495 308.71712800158184 2.042388916015625 310.6937561035156 C0.8173625322401676 312.20362970078816 -0.314215506805283 313.7879776724838 -1.4375 315.375 C-6.2345486565363615 318.2347790067813 -9.902038423386841 318.79721507661293 -15.296875 317.953125 C-20.481111802019512 316.55300265200935 -23.75962870236947 313.05287129763053 -27.4375 309.375 C-30.532416078614744 308.3433613071284 -33.20176940523021 308.22673065147086 -36.440185546875 308.135986328125 C-66.12961902374859 307.2399149878524 -92.55847422699446 297.5873409842032 -114.4375 277.375 C-114.7997265625 277.05337890625003 -114.7997265625 277.05337890625003 -116.6328125 275.42578125 C-129.07220990377706 263.8173557375684 -137.10417382721738 248.83884332966926 -143.5625 233.3125 C-145.14226484540131 229.62172195410665 -147.30953256113003 227.05695777890446 -149.98828125 224.1015625 C-159.2991189368097 213.0088663879518 -159.46320209902083 197.08670458169297 -158.4375 183.375 C-157.4204337826026 175.64845044147705 -155.6239607607606 168.39951692027375 -150.4375 162.375 C-147.4375 160.375 -147.4375 160.375 -143.4375 160.375 C-143.499375 159.385 -143.56125 158.39499999999998 -143.625 157.375 C-143.60203432037974 151.71395997360582 -142.0334664340879 147.05723488998456 -138.125 142.9375 C-134.94944501169357 141.09124709982183 -133.12980654965065 140.375 -129.4375 140.375 C-116.97129269029547 143.67643202057855 -109.32173658213837 158.40076161168258 -102.4375 168.375 C-90.00007354120498 165.74647172778043 -77.77354897447663 161.5139117606937 -70.18359375 150.56640625 C-67.25554784184406 141.96622952499752 -70.68617622344576 132.12568666724684 -74.28125 124.33984375 C-77.77428493475594 115.38304133283867 -76.9121269146775 106.16847888406846 -73.4375 97.375 C-70.90777057622672 91.81306065047107 -68.06723939349857 87.44013702843776 -63.4375 83.375 C-62.55835937500001 82.562890625 -61.67921875000002 81.75078124999999 -60.7734375 80.9140625 C-58.47339196094083 78.9954209295216 -56.42880901245303 77.85240942571912 -53.59765625 76.8828125 C-52.92669921875 76.65078125 -52.255742187500005 76.41874999999999 -51.564453125 76.1796875 C-50.202851649544044 75.73140243523306 -48.829796804934375 75.31634774483456 -47.447265625 74.9375 C-42.88591964889633 73.2756481582748 -40.92492894736404 70.98777425356903 -38.793792724609375 66.62164306640625 C-37.59157076037633 63.95001013730018 -36.45790443764466 61.25385625385354 -35.345977783203125 58.54351806640625 C-34.11709439823454 55.610198318712435 -32.77455398527792 52.7353020115101 -31.429183959960938 49.853973388671875 C-30.05887276134908 46.91070091271146 -28.72458950442305 43.95169376731084 -27.390869140625 40.99169921875 C-26.704140104321567 39.47630724294174 -26.010587229095137 37.96399199998908 -25.310791015625 36.45458984375 C-24.28287050921554 34.23473661270759 -23.277978844313736 32.00569755531518 -22.27734375 29.7734375 C-21.96087387084961 29.102591247558593 -21.64440399169922 28.431744995117185 -21.318344116210938 27.740570068359375 C-19.968807178720255 24.67153089989344 -19.279556968914534 22.935358772925838 -20.205322265625 19.65087890625 C-20.611940917968752 18.899838867187498 -21.018559570312505 18.148798828124995 -21.4375 17.375 C-22.761845335739736 11.604638179991184 -22.659504842163386 8.238599542774182 -19.65625 3.07421875 C-15.017375020035132 -3.3934434816817998 -6.65116486732191 -3.1441870281885542 0 0 Z " transform="translate(192.4375,151.625)" id="glasses_frame" inkscape:label="glasses_frame" style="fill:#002b36;stroke:none" />
          <path d="M0 0 C0.3300000000000125 0 0.6599999999999966 0 1 0 C0.9651953124999864 0.7760156250000136 0.9303906250000011 1.5520312500000273 0.89453125 2.3515625 C0.5149338499059297 17.499306370421095 3.4297017898930164 31.825847578254468 13.984375 43.18359375 C22.60947527691681 50.95621318559364 33.9062313694252 55.32495131742638 45.5 55.234375 C51.08444062770894 54.71083369115229 56.549937517386496 53.285969799268344 62 52 C62.0863671875 52.7734375 62.172734375000005 53.546875 62.26171875 54.34375 C63.28271778437849 61.912256603466176 64.51516203727945 68.41212962982354 70.71875 73.375 C76.11703312061789 76.56087200561058 81.87476108743124 76.78739992000135 88 76 C88.80179687500004 75.667421875 89.60359374999996 75.33484375 90.4296875 74.9921875 C95.53488664089139 73.02148752768022 100.82209016747055 73.43488871560822 106 75 C108.84578209159417 77.96571926786828 110.34976904526332 81.26802893628457 112 85 C116.26052071812671 91.69510398562767 124.35356539657687 96.21040892260311 132 98 C137.34719296583518 98.83858192268633 142.59413803932028 99.11501833958891 148 99 C144.20595107557995 106.3117101788493 136.80940825597258 110.23515401660711 129.1875 112.875 C123.5555944491631 114.59616262482058 118.32310186032299 115.05394907124884 112.47802734375 114.77978515625 C100.64448836602975 114.3156766551524 100.64448836602975 114.3156766551524 96.375 117.125 C87.38670015012599 125.86704505946648 81.37224606595225 140.34754875969452 80.83984375 152.72265625 C80 156 80 156 77.0078125 157.83203125 C72.72093927794225 159.25555155636061 68.33924020720144 160.05371757431533 63.875 160.6875 C63.43498657226564 160.75118774414062 63.43498657226564 160.75118774414062 61.208251953125 161.073486328125 C48.548802763310846 162.6888255443863 35.73210844885543 162.26027478221272 23 162 C23.21656250000001 160.7328515625 23.43312499999999 159.465703125 23.65625 158.16015625 C23.937878087317046 156.4610001231871 24.219106729759375 154.76177775645567 24.5 153.0625 C24.64308593749999 152.23169921875 24.786171875000008 151.40089843750002 24.93359375 150.544921875 C26.097262404068516 143.42437796796162 26.83613381912707 136.28212406545765 25.125 129.1875 C24.962578124999993 128.4798046875 24.800156249999986 127.77210937500001 24.6328125 127.04296875 C23.405375692128274 123.08031782088324 22.533709052172384 121.35580603478161 19 119 C14.790743864915498 118.39304733632673 11.060486381231158 118.56197301644801 7.125 120.1875 C4.747558225406721 122.21531798421188 3.532022609872115 124.30072206832051 2 127 C1.3400000000000034 127 0.6800000000000068 127 0 127 C-0.7631250000000023 126.05124999999998 -1.5262500000000045 125.10250000000002 -2.3125 124.125 C-4.646274618529219 121.2552713266341 -6.267066956088087 119.78131156733042 -10 119 C-14.474829547015787 118.85418070722557 -17.234087329853367 119.43389063510904 -20.875 122.125 C-25.543514313103003 128.4412252471394 -25.274247788851852 133.97105383968653 -24.5546875 141.5703125 C-23.828129720596564 146.0626908825086 -22.51022994652888 150.18000194635374 -20.9375 154.44140625 C-20.13867651384183 156.6215286809733 -19.51083477533001 158.73849188004954 -19 161 C-42.898367700134514 162.9732597183597 -69.40329918165396 152.51921875308682 -87.50390625 137.2421875 C-101.97258057281381 124.245287560571 -112.8523685375709 109.83159524039576 -119 91.0625 C-120.182625470177 87.61317571198373 -121.06664503231053 85.51251622576711 -124 83.3125 C-129.8181280328893 78.82769297464785 -131.72332680166178 72.06625556649419 -133 65 C-133.28899692954434 61.7236766533573 -133.33355532289337 58.47527295687405 -133.3125 55.1875 C-133.30903564453126 54.3110986328125 -133.3055712890625 53.434697265625005 -133.302001953125 52.53173828125 C-133.1958297052371 46.195425454260544 -132.8848928760275 39.769785752054986 -130 34 C-129.01 33.34000000000003 -128.01999999999998 32.68000000000001 -127 32 C-120.54859967051067 39.30313014827021 -120.54859967051067 39.30313014827021 -117.6875 42.9375 C-116 45 -116 45 -114 46 C-114.13857421875 45.56429687499997 -114.13857421875 45.56429687499997 -114.83984375 43.359375 C-120.85612859339614 23.576288895736525 -120.85612859339614 23.576288895736525 -117.5625 15.75 C-117.046875 14.842499999999973 -116.53125 13.935000000000002 -116 13 C-106.16135928044355 17.13444003271246 -99.69894907431853 29.409406575075877 -94 38 C-93.34 38.99000000000001 -92.68 39.98000000000002 -92 41 C-76.78795717299019 40.401100676101976 -64.42178450504639 35.08891217457381 -52.9453125 25.2578125 C-52.303359375 24.84273437500002 -51.66140625 24.427656249999984 -51 24 C-48 25 -48 25 -46.203125 28.3515625 C-45.54715562234418 29.773779193609414 -44.89638320945397 31.19840093420072 -44.25 32.625 C-40.69931588712865 40.06617017274425 -37.47526782110498 46.12852436571973 -29.5625 49.4375 C-29.139687500000008 49.53031249999998 -29.139687500000008 49.53031249999998 -27 50 C-28.471324870386184 44.73117741945498 -30.938917854604313 40.64223866270038 -33.8125 36.0625 C-38.37082152236155 28.588591393796207 -44 19.023238301524486 -44 10 C-43.298749999999984 10.288749999999993 -42.5975 10.577499999999986 -41.875 10.875 C-33.46110031867045 14.167395527476799 -25.549603188254537 15.92510158444236 -16.734375 12.8671875 C-10.740454422698406 9.99070802697338 -3.1013384384395124 6.202676876879025 0 0 Z " transform="translate(177,289)" id="body" inkscape:label="body" style="fill:#f48498;stroke:none" />
          <path d="M0 0 C4.886401844724787 1.047086109583887 7.60292866472065 2.8720582715155842 10.6171875 6.71484375 C15.489703134271053 14.766882298159828 16.56177139647292 24.219665203919305 17.1416015625 33.43896484375 C17.3125 35.54296875 17.3125 35.54296875 18 39 C19.83544921875 40.0546875 19.83544921875 40.0546875 22 41 C42.06424305633868 55.5663475502441 54.23057407424608 75.10778910746626 60 99 C60.246210937499995 100.010625 60.49242187499999 101.02125000000001 60.74609375 102.0625 C62.2151303616572 109.03282544013899 62.20317944637105 115.90000712403366 62 123 C61.25234375000002 122.65066406250003 60.50468749999999 122.301328125 59.734375 121.94140625 C58.74953125000002 121.48636718749998 57.764687500000036 121.03132812500002 56.75 120.5625 C55.77546874999996 120.1100390625 54.80093750000003 119.65757812499999 53.796875 119.19140625 C45.06894338271553 115.47350241861488 33.13051649215038 115.54160312052369 24.125 118.5 C17.39962898974744 121.36317479456386 11.162145038338338 125.83785496166166 6 131 C2.8261608524752546 130.5996921711809 0.25039281598918706 129.2079799490753 -2.546875 127.71484375 C-3.3912109374999773 127.26689453124999 -4.235546875000011 126.81894531249998 -5.10546875 126.357421875 C-5.978164062500014 125.88884765625 -6.850859375000027 125.42027343749999 -7.75 124.9375 C-8.638164062499982 124.46505859374997 -9.52632812500002 123.9926171875 -10.44140625 123.505859375 C-12.629710374439696 122.34111685715305 -14.815782480031658 121.1723828786001 -17 120 C-16.97679687499999 119.10539062499998 -16.953593749999982 118.21078124999997 -16.9296875 117.2890625 C-16.706777322883624 102.35408063320398 -19.35867157594521 89.80616374149304 -29 78 C-37.88645930443309 69.5540332903987 -48.79882519135248 65.67222744333176 -60.8125 64.6875 C-73.3654271560159 65.09407253946608 -83.7883124528008 69.73310091918017 -93 78 C-93.66 77.67000000000002 -94.32 77.34000000000003 -95 77 C-84.29410924395444 62.59131995990862 -68.48045856361699 56.02703755247731 -52.36328125 49.53515625 C-51.3152734375 49.1110546875 -50.26726562499999 48.686953125 -49.1875 48.25 C-48.29417968749999 47.90453124999999 -47.40085937500001 47.55906250000001 -46.48046875 47.203125 C-40.42470743886909 44.265842348301874 -37.90540611951815 40.82713704062067 -35.66015625 34.6640625 C-34.33603311531772 29.320559672465635 -34.995760920103436 24.88796947020552 -37.5625 20.0625 C-38.03687500000001 19.381875000000008 -38.51124999999999 18.701250000000016 -39 18 C-39 17.340000000000003 -39 16.680000000000007 -39 16 C-35.03999999999999 16.329999999999984 -31.079999999999984 16.659999999999997 -27 17 C-27.533894552616857 11.966137075326515 -28.105258935161316 6.984985932672657 -29 2 C-27 1 -27 1 -25.265625 1.49609375 C-18.611549588465607 4.603908041046111 -14.576345112692366 8.824172569395984 -11.96484375 15.7421875 C-11.231617834289409 18.149896786007815 -10.572431791701035 20.549590224999008 -10 23 C-7.689999999999998 23 -5.3799999999999955 23 -3 23 C-3.0348046875000136 21.758632812499997 -3.0696093750000273 20.517265624999993 -3.10546875 19.23828125 C-3.1336158387152864 17.596367741606684 -3.160915011238899 15.954439543960177 -3.1875 14.3125 C-3.212636718749991 13.495878906249999 -3.237773437499982 12.679257812499998 -3.263671875 11.837890625 C-3.3221701197306857 7.021535142173178 -3.073023756721284 3.960248463386222 0 0 Z " transform="translate(285,187)" id="left_wing" inkscape:label="left_wing" style="fill:#f48498;stroke:none" />
          <path d="M0 0 C6.723889119920102 5.928228907396203 10.945591656452791 14.121377933845963 11.66015625 22.99609375 C11.990664097136062 31.409020768009043 11.602493928626416 38.597020481100685 7.34375 46.06640625 C6.919648437500001 46.84371093750002 6.495546875000002 47.621015624999984 6.05859375 48.421875 C0.6106087058454079 57.48161614585035 -7.512669419754445 63.2402580461665 -17.65625 66.06640625 C-27.492280016857364 68.1637950035946 -36.963522557189435 66.67842359256434 -45.53125 61.31640625 C-54.15828762598332 54.931775515969036 -58.80403116605055 46.9924595719005 -61.2578125 36.4921875 C-62.54600335936718 27.190251178290566 -61.06193783052328 16.87800584734771 -55.65625 9.06640625 C-48.35178885048748 -0.28388031022410587 -41.15411521741257 -6.10072085996984 -29.46875 -8.62109375 C-18.05990460637264 -9.556245011772717 -9.292258489282574 -6.764217576757176 0 0 Z " transform="translate(247.65625,268.93359375)" id="body_part_3" inkscape:label="body" style="fill:#88c1e9;stroke:none;fill-opacity:1" />
          <path d="M0 0 C6.62629080221825 4.750354593371071 10.076152709352755 11.556217560432458 12.25390625 19.27734375 C13.65957336089798 30.80381405936356 10.610185429277351 41.34040636697523 3.55078125 50.6171875 C-2.609972542679998 57.51771684652539 -9.446482764326731 62.27234507837221 -18.73046875 63.15234375 C-28.905279136561433 63.50169346284332 -36.298663005054436 61.530896733171176 -43.86328125 54.6171875 C-50.5862517225832 47.00785524869315 -51.80290251497661 39.36219368749312 -51.7109375 29.51171875 C-50.99007890558511 19.96795707746446 -46.517609140507375 10.748548264972612 -39.62109375 4.08984375 C-27.827329085360134 -5.421256785999901 -13.433666567177795 -7.602274688482794 0 0 Z " transform="translate(340.43359375,316.16015625)" id="body_part_4" inkscape:label="body" style="fill:#88c1e9;stroke:none;fill-opacity:1" />
          <path d="M0 0 C-2.647918823275006 5.148731045256966 -6.164582698095728 8.688225063824916 -11.45703125 11.13671875 C-16.605298931759933 12.391147810274447 -21.598833101799215 12.209470652311097 -26.875 12.125 C-27.944921875000006 12.115976562500009 -29.014843749999997 12.106953125000018 -30.1171875 12.09765625 C-32.74502438917311 12.074193420632355 -35.372394062210304 12.041364588509623 -38 12 C-36.032730489274456 15.642861838472868 -34.19362305873328 17.929085384827374 -30.8125 20.3125 C-30.454785156249997 20.568378906250018 -30.454785156249997 20.568378906250018 -28.64453125 21.86328125 C-28.1018359375 22.238398437499995 -27.559140624999998 22.61351562499999 -27 23 C-27.33 23.660000000000025 -27.659999999999997 24.319999999999993 -28 25 C-35.16901569809525 24.496911179081053 -41.7621227604553 22.811257394813538 -48.64453125 20.83984375 C-52 20 -52 20 -56 20 C-55.749456748352685 23.591119940278134 -55.32566877344139 25.590287672122145 -53.0625 28.4375 C-49.54219328963791 31.383062757649896 -45.84339011951627 33.926468695033805 -42.01171875 36.44921875 C-41.679785156250006 36.70509765625002 -41.679785156250006 36.70509765625002 -40 38 C-40 38.65999999999997 -40 39.31999999999999 -40 40 C-41.62451418647619 40.33569296842313 -43.2496291690594 40.66847960388748 -44.875 41 C-45.779921875 41.185625000000016 -46.68484375 41.37125000000003 -47.6171875 41.5625 C-49.999999999999986 42 -49.999999999999986 42 -52 42 C-47.53887006527033 50.47758132291074 -37.77496234997402 54.124172002949706 -29 57 C-15.296510751105544 60.50174341964936 -0.8519186331931223 57.979401834208545 11.375 51.25 C17.311043305832186 47.433972160536484 21.39139963466539 42.55483587435498 25.125 36.625 C27.21077733906418 33.704911725310126 28.591744233644704 32.946737712876484 32 32 C33 33 33 33 33.3125 36.0625 C32.753817685009324 43.10189716888249 29.138207357065596 49.16404013452649 24 54 C9.355383092124555 65.88548618610184 -5.594043278504557 69.24653663089254 -24 68 C-36.569747894229494 66.39161290385664 -48.887583504135065 60.95764084413048 -58 52 C-60.99569724076784 48.04140007469965 -61.25469534521277 45.458842692466135 -60.9375 40.5625 C-60.781444665048156 34.80795952365065 -61.2628307904952 32.303406968520676 -65 28 C-66.50186546925224 23.49440359224326 -66.71589695274855 19.657866627417718 -64.8125 15.25 C-62.614207945920754 12.521085725970579 -61.27376205411588 11.323435724004298 -58 10 C-56.31198789933839 9.99725972061583 -54.6235301045288 10.04317795080965 -52.9375 10.125 C-50.30078125 10.21875 -50.30078125 10.21875 -48 10 C-45.625 7.625 -45.625 7.625 -44 5 C-40.772400844171 2.878282287721561 -38.04840533647335 2.7378600698446576 -34.23828125 2.69140625 C-33.67850585937501 2.6788378906250045 -33.67850585937501 2.6788378906250045 -30.845703125 2.615234375 C-28.509816768684516 2.580370399532626 -26.173874399348463 2.54905922562466 -23.837890625 2.521484375 C-17.703945848733568 2.377528029363532 -12.511126383528023 1.933544038237244 -6.7998046875 -0.39404296875 C-4.30557127743765 -1.23379979508951 -2.444764668941872 -0.8674971405922633 0 0 Z " transform="translate(128,338)" id="outline_5" inkscape:label="glasses_frame" style="fill:#002b36;stroke:none" />
          <path d="M0 0 C1.3125 2.125 1.3125 2.125 1.3125 4.125 C0.7077685546875045 4.2659912109375 0.1030371093750091 4.406982421875 -0.52001953125 4.55224609375 C-3.2848674534289444 5.198594803874528 -6.048682496605352 5.849259899994365 -8.8125 6.5 C-9.763828125000003 6.721718750000008 -10.715156250000007 6.9434374999999875 -11.6953125 7.171875 C-15.583479734188586 8.089914485850073 -19.363329259997442 9.012420342555686 -23.140625 10.32421875 C-25.6875 11.125 -25.6875 11.125 -29.3125 10.5625 C-32.6875 10.125 -32.6875 10.125 -35.125 11.125 C-36.6875 13.125 -36.6875 13.125 -37.1875 16.625 C-36.6875 20.125 -36.6875 20.125 -35.0625 22.125 C-31.751386947364864 23.519152864267426 -30.05808928830095 23.344149317045037 -26.6875 22.125 C-26.3059375 21.169804687500005 -25.924374999999998 20.21460937500001 -25.53125 19.23046875 C-23.249258641470192 15.38686042366271 -21.789495005498566 15.021173837909885 -17.63037109375 13.920654296875 C-16.8448486328125 13.740588378906239 -16.059326171875 13.560522460937506 -15.25 13.375 C-14.449008789062503 13.172375488281261 -13.648017578125007 12.969750976562494 -12.82275390625 12.760986328125 C-6.50558507471581 11.202903296013801 -0.1399106743784273 9.972669637614416 6.3125 9.125 C7.772726396327926 11.767043868842308 8.315944371142507 12.963114556302514 8.25 16.0625 C7.005908532294143 20.12653212783917 5.682848314132855 21.496128314976374 2.3125 24.125 C-2.2146046695447126 26.51993596946062 -6.941545780691143 28.41705767639496 -11.68359375 30.33984375 C-22.090275817243423 34.57559340805875 -31.110335076210134 39.25427028911395 -39.69140625 46.5859375 C-41.6875 48.125 -41.6875 48.125 -43.6875 48.125 C-43.97882812500001 47.279375000000016 -44.270156250000014 46.43375 -44.5703125 45.5625 C-48.75348812455118 33.98641651067598 -53.012845176230826 27.38746416327791 -63.6875 21.125 C-55.211203435172536 8.56752360766302 -37.740078700042176 2.6562798694038747 -23.58203125 -0.31640625 C-5.464870590929905 -3.8127004122766834 -5.464870590929905 -3.8127004122766834 0 0 Z " transform="translate(233.6875,201.875)" id="cyber_implant_6" inkscape:label="cyber_implant" style="fill:#859900;stroke:none" />
          <path d="M0 0 C4.84828732376991 3.827595255607804 7.5066460969877085 6.578107166341113 8.3125 12.75 C8.725397364763012 21.120555667468295 6.2018751875295095 28.044278455245433 1.375 34.875 C-3.1136934993701857 39.59059448944822 -6.808314657213089 41.985239909504685 -13.4375 42.25 C-16.95372546557661 42.203868762113416 -19.24244857015242 41.97359468870229 -22.0625 39.8125 C-26.688661027854565 34.509339797337475 -27.974403841016525 29.85119687435889 -27.828125 22.98828125 C-27.624132520123112 20.865974872819322 -27.19899031668993 18.925626695916435 -26.625 16.875 C-21.577401828113466 17.348212328614352 -17.50081251422796 19.71986010746525 -13.625 22.875 C-12.375 25.5625 -12.375 25.5625 -11.625 27.875 C-9.19243110762082 29.720397090770405 -8.04961760536699 29.915439771939702 -5 29.625 C-2.625 28.875 -2.625 28.875 -0.625 26.875 C-0.08393719806764466 20.923309178743978 -0.08393719806764466 20.923309178743978 -1.625 17.9375 C-3.625 16.875 -3.625 16.875 -7.125 17.0625 C-13.089227876008948 17.362936851963127 -17.716637098189665 13.906635909941684 -22.625 10.875 C-20.63116914621736 5.2336871103874785 -17.464312528234558 2.403860592126307 -12.1875 -0.4375 C-7.834406848395673 -1.6054030406743323 -4.182815424753926 -1.792635182037401 0 0 Z " transform="translate(153.625,238.125)" id="cyber_dome_7" inkscape:label="cyber_dome" style="fill:#268bd2;stroke:none" />
          <path d="M0 0 C1.895346351022738 1.5915505742219693 2.898875309451057 2.5069025663262323 3.404052734375 4.97021484375 C3.408927001953117 5.339934082031277 3.408927001953117 5.339934082031277 3.43359375 7.2109375 C3.4392736816406284 7.624283447265611 3.4392736816406284 7.624283447265611 3.468017578125 9.716064453125 C3.45794677734375 10.593513183593757 3.4478759765625 11.470961914062514 3.4375 12.375 C3.4306518554687386 13.272429199218777 3.4238037109375057 14.169858398437498 3.416748046875 15.094482421875 C3.1726368395877103 25.2877253059429 1.267203761143719 35.38673891689706 -6 43 C-8.8125 44.375 -8.8125 44.375 -12 44 C-21.0109438262148 38.438134872797264 -26.261588945994077 29.072546888035674 -29.31640625 19.2109375 C-30.489930917477267 13.698724490478185 -31.60418459149554 6.208369182991078 -29 1 C-26.6953125 0.78125 -26.6953125 0.78125 -24 1 C-19.210144762008213 5.149736335218677 -16.892666613906243 11.111703867847211 -15 17 C-13.02000000000001 17 -11.039999999999992 17 -9 17 C-8.601679687499995 15.94039062500002 -8.203359374999991 14.880781249999984 -7.79296875 13.7890625 C-7.258318119921114 12.400846828917963 -6.723133994218529 11.012836542939738 -6.1875 9.625 C-5.926464843750011 8.926328124999998 -5.665429687499994 8.227656249999995 -5.396484375 7.5078125 C-3.981682389674802 3.8747407352142886 -3.3229720310916946 2.215314687394482 0 0 Z " transform="translate(191,416)" id="legs_8" inkscape:label="legs" style="fill:#b58900;stroke:none" />
          <path d="M0 0 C0.7218750000000114 0.2681249999999977 1.4437500000000227 0.5362499999999955 2.1875 0.8125 C2.34520305518555 4.676224852046232 2.2186716405030893 7.706149697107151 1.125 11.4375 C0.18438515635978092 14.8237134371048 0.18521813241005702 16.504969836953137 1.1875 19.8125 C5.425243996922518 20.169989827508402 7.2869915056191985 19.38294504380127 10.625 16.8125 C14.295411836801804 14.197791902211407 16.561003502907454 13.100731308139586 21.1875 13.8125 C20.412070840360286 22.032049092180955 14.872532327640386 26.74854053656867 8.75390625 31.8359375 C-5.994280968270118 42.64340909354837 -5.994280968270118 42.64340909354837 -13.9375 41.75 C-14.886250000000018 41.44062500000001 -15.83499999999998 41.13125000000002 -16.8125 40.8125 C-19.731096602496052 34.975306795007896 -17.890812569371008 27.215127836303395 -16.1875 21.25 C-13.965816521556746 14.64775333791249 -8.605617913006597 -0.5737078608671027 0 0 Z " transform="translate(283.8125,412.1875)" id="legs_9" inkscape:label="legs" style="fill:#b58900;stroke:none" />
          <path d="M0 0 C5.894482872592249 2.1994339076836695 8.781157656151265 6.381000490955216 11.33203125 11.81640625 C15.214871467921625 21.83214281212605 13.910029792483584 33.13613943357285 9.70703125 42.7734375 C4.922423906724163 51.69389186881938 -1.5778889045242295 58.117461997356145 -10.28125 63.15625 C-15.880873141863049 64.4894936052055 -21.089703160305845 64.48237334163633 -26.46875 62.40625 C-28.90625 60.78125 -28.90625 60.78125 -29.90625 58.78125 C-29.144414062500005 58.63429687500002 -28.38257812500001 58.48734374999998 -27.59765625 58.3359375 C-17.591102332929125 56.162229158464015 -10.067378111566825 52.592571230298006 -4.1875 43.96875 C1.0753159988677226 34.98345439217701 3.338958017925364 25.266261447437728 1.40625 14.90625 C-0.208432022681734 8.902667177411502 -4.01463746689592 4.506779504483518 -7.90625 -0.21875 C-5.060615579264578 -1.6415672103676968 -2.9615738517759667 -0.8155058432426472 0 0 Z " transform="translate(167.90625,231.21875)" id="cyber_implant_10" inkscape:label="cyber_implant" style="fill:#859900;stroke:none" />
          <path d="M0 0 C2.8125 2.0625 2.8125 2.0625 5 5 C10.610470720167939 12.400314140098772 17.328825903196503 16.707736038112046 26 20 C25.670000000000016 20.16500000000002 25.670000000000016 20.16500000000002 24 21 C23.87625 21.618749999999977 23.752499999999998 22.23750000000001 23.625 22.875 C22.765584268492432 25.797013487125753 21.627243257746386 26.508861934792606 19 28 C11.530339911483907 29.7613118958717 4.2001734397927635 28.06269645188638 -2.6328125 24.70703125 C-8.128443770227932 21.232674531703367 -13.659594089933279 17.055587112509556 -15.76171875 10.6953125 C-16.46323995750734 6.769368127711175 -16.536951991019237 4.786251129706727 -14.25 1.4375 C-9.471115392986206 -0.6762374223330312 -5.138847937859111 -0.8862763463176293 0 0 Z " transform="translate(182,322)" id="body_shadow_11" inkscape:label="body_shadow" style="fill:#da5780;stroke:none" />
          <path d="M0 0 C0.5981249999999818 0.6806250000000205 1.1962500000000205 1.361249999999984 1.8125 2.0625 C11.104804969337238 11.354804969337238 22.219229156004303 15.036501476024284 35.0625 15.0625 C36.031875000000014 15.041875000000005 37.00125000000003 15.021250000000009 38 15 C35.879752594062836 19.240494811874328 33.5550836778059 22.428412089022686 29 24 C17.002772165504325 25.488377889241974 7.100820339475149 22.862997681760646 -2.44140625 15.5625 C-5.099450309737051 12.897794175702188 -5.9326449239382555 10.660079745405028 -6.3125 6.9375 C-6 4 -6 4 -4.6875 2.1875 C-3 1 -3 1 0 0 Z " transform="translate(287,373)" id="body_shadow_14" inkscape:label="body_shadow" style="fill:#da5780;stroke:none" />
          <path d="M0 0 C0.660000000000025 0 1.3199999999999932 0 2 0 C3.4559335424675623 8.244442951322299 3.1821481265118337 15.24245341676675 -1.5859375 22.37109375 C-4.836719734506687 26.35294709838047 -6.756598502474333 28.342322492578376 -12 29 C-12.082499999999982 27.92750000000001 -12.16500000000002 26.855000000000018 -12.25 25.75 C-13.061441135828204 21.69279432085898 -13.820064079922759 20.505404058242675 -17 18 C-19.6445837888661 16.67770810556692 -21.67761301073 16.90322805826429 -24.625 16.9375 C-25.126445312499982 16.942011718749995 -25.126445312499982 16.942011718749995 -27.6640625 16.96484375 C-28.049492187499993 16.970644531250002 -28.049492187499993 16.970644531250002 -30 17 C-30.5625 15.0625 -30.5625 15.0625 -31 13 C-29.192403922105427 11.192403922105427 -26.2526725949931 11.302910399565917 -23.8125 10.875 C-15.55078749370665 9.171816191010294 -6.081619680548158 6.081619680548158 0 0 Z " transform="translate(326,400)" id="body_part_15" inkscape:label="body" style="fill:#f48498;stroke:none" />
          <path d="M0 0 C3.8432449271368796 3.513823933382298 5.564248367173377 8.130245101520188 7.1875 13 C7.255529665984 14.727953515993704 7.272456446093372 16.45835365080984 7.25 18.1875 C7.240976562500009 19.088554687499993 7.231953125000018 19.989609374999986 7.22265625 20.91796875 C7.2110546874999955 21.605039062499998 7.199453124999991 22.292109374999995 7.1875 23 C1.9720257492425048 21.030291405924743 -1.9161335810578066 18.653531199280508 -6 14.8125 C-6.260874023437509 14.571243896484361 -6.260874023437509 14.571243896484361 -7.5810546875 13.350341796875 C-11.546097776360568 9.551870746465283 -13.887615306305975 6.100944438289105 -15.8125 1 C-10.724196716851225 -1.8960637734021475 -5.480900803752263 -1.948764730223047 0 0 Z " transform="translate(270.8125,332)" id="legs_17" inkscape:label="legs" style="fill:#b58900;stroke:none" />
          <path d="M0 0 C4.801777693926283 0.6141808678277698 8.548878009578914 2.6165933808719046 12.75 4.875 C13.434492187499984 5.226914062499986 14.118984375000025 5.578828124999973 14.82421875 5.94140625 C19.877765098314626 8.63329529494382 19.877765098314626 8.63329529494382 21 12 C20.0625 14.1875 20.0625 14.1875 19 16 C16 15 16 15 14.25 12.625 C9.946437775802679 7.604177405103144 4.358370166292161 6.648813282274716 -2 6 C-1.339999999999975 4.019999999999982 -0.6800000000000068 2.0400000000000205 0 0 Z " transform="translate(264,316)" id="body_part_18" inkscape:label="body" style="fill:#f48498;stroke:none" />
          <path d="M0 0 C2.8125 1.25 2.8125 1.25 3.8125 2.25 C4.268196202531641 7.490506329113941 4.268196202531641 7.490506329113941 2.6875 10.125 C-0.09856042341402826 11.796636254048423 -2.007388619070497 11.71376624305222 -5.1875 11.25 C-7.125 9.5625 -7.125 9.5625 -8.1875 7.25 C-8.11007109201688 4.075414772692312 -7.58621070134339 2.7077789533942394 -5.5 0.3125 C-3.1875 -0.75 -3.1875 -0.75 0 0 Z " transform="translate(186.1875,157.75)" id="body_part_19" inkscape:label="body" style="fill:#dc322f;stroke:none" />
          <path d="M0 0 C5.452866601500773 5.2347519374407625 10.350430770538651 11.048551386289489 15 17 C7.232142857142861 17.669642857142833 7.232142857142861 17.669642857142833 3.5625 14.6875 C0.23987808709694036 11.202798969394394 -0.12959745735207662 8.942224557293798 -0.0625 4.3125 C-0.053476562500009095 3.5042578124999864 -0.04445312499998977 2.6960156249999727 -0.03515625 1.86328125 C-0.023554687499995453 1.2483984374999864 -0.011953124999990905 0.6335156249999727 0 0 Z " transform="translate(248,340)" id="cyber_implant_20" inkscape:label="cyber_implant" style="fill:#dc322f;stroke:none" />
          <path d="M0 0 C4.555555555555543 0.5555555555555429 4.555555555555543 0.5555555555555429 6 2 C6.040638320757836 3.666171151071751 6.042721001320928 5.333880948484193 6 7 C3.6875 8.125 3.6875 8.125 1 9 C0.009999999999990905 8.339999999999975 -0.9799999999999898 7.680000000000007 -2 7 C-2.3125 4.5 -2.3125 4.5 -2 2 C-1.3400000000000034 1.339999999999975 -0.6800000000000068 0.6800000000000068 0 0 Z " transform="translate(145,257)" id="cyber_implant_21" inkscape:label="cyber_implant" style="fill:#859900;stroke:none" />
          <path d="M0 0 C2.375 -0.125 2.375 -0.125 5 0 C5.659999999999997 0.6599999999999966 6.319999999999993 1.3199999999999932 7 2 C6.625 4.625 6.625 4.625 6 7 C4.1875 7.6875 4.1875 7.6875 2 8 C0.1875 6.875 0.1875 6.875 -1 5 C-0.6875 2.3125 -0.6875 2.3125 0 0 Z " transform="translate(200,215)" id="body_shadow_22" inkscape:label="body_shadow" style="fill:#268bd2;stroke:none" />
          <path d="M0 0 C0.9900000000000091 0.3299999999999841 1.9799999999999898 0.660000000000025 3 1 C0.19195732169953317 3.9640450493171784 -2.183157737358897 6.444990189294344 -6 8 C-4.264405622943059 4.942048002328249 -2.6152738112702423 2.366200114958815 0 0 Z " transform="translate(196,257)" id="body_part_24" inkscape:label="body" style="fill:#f48498;stroke:none" />
          <path id="glasspane" inkscape:label="glasspane" style="fill:none;stroke:none" d="M 0 0" />
        </g>
      </g>
    </g>
    <g id="mascot_particles" class="mascot-particles-group" inkscape:label="Particules" transform="matrix(0.73567123,0,0,0.73567123,56.190729,171.96682)">
      <path d="m 450.48294,124.26273 h 17.98691 c 1.28476,0 1.92714,1.02783 0.64238,2.3126 l -15.41734,13.10471 h 16.05972" fill="none" stroke="#002b36" stroke-width="4.49672" stroke-linecap="round" stroke-linejoin="round" id="particle-sleep-z-small" class="mascot-particle particle-sleep-z-small particle-sleep-z" data-particle="sleep-z-small" />
      <path d="m 450.24392,70.953301 h 30.24018 c 2.26798,0 3.02397,1.511988 0.756,3.780024 l -26.46016,23.43612 h 27.21614" fill="none" stroke="#002b36" stroke-width="7.56006" stroke-linecap="round" stroke-linejoin="round" id="particle-sleep-z-medium" class="mascot-particle particle-sleep-z-medium particle-sleep-z" data-particle="sleep-z-medium" />
      <path d="m 473.68782,4.2483774 h 51.75961 c 3.98154,0 5.97227,1.99073 1.9908,5.9722696 l -45.78741,41.80588 h 47.77815" fill="none" stroke="#002b36" stroke-width="12.9399" stroke-linecap="round" stroke-linejoin="round" id="particle-sleep-z-large" class="mascot-particle particle-sleep-z-large particle-sleep-z" data-particle="sleep-z-large" />
      <g id="particle-bubbles" transform="translate(17.458556,0.54756299)" class="mascot-particle particle-bubbles" data-particle="bubbles">
        <g id="g4" transform="matrix(1.0022611,0,0,1.0022611,274.01374,226.30448)">
          <circle cx="32" cy="32" r="26" fill="#fdf6e3" stroke="#002b36" stroke-width="4.5" id="circle1-8" />
          <path d="M 14,32 A 18,18 0 0 0 46,44 22,22 0 0 1 14,32 Z" fill="#268bd2" opacity="0.4" id="path1-0" />
          <path d="M 18,24 A 16,16 0 0 1 34,14" fill="none" stroke="#ffffff" stroke-width="3.5" stroke-linecap="round" id="path2-5" />
          <circle cx="42" cy="38" r="2" fill="#ffffff" id="circle2-6" />
        </g>
        <g id="g3" transform="matrix(1.0022611,0,0,1.0022611,276.37176,229.17705)">
          <circle cx="24" cy="24" r="19" fill="#fdf6e3" stroke="#002b36" stroke-width="3.5" id="circle1-69" />
          <path d="M 11,24 A 13,13 0 0 0 34,33 16,16 0 0 1 11,24 Z" fill="#268bd2" opacity="0.4" id="path1-3" />
          <path d="M 14,18 A 12,12 0 0 1 26,11" fill="none" stroke="#ffffff" stroke-width="2.5" stroke-linecap="round" id="path2-3" />
        </g>
        <g id="g2" transform="matrix(1.0022611,0,0,1.0022611,278.98701,232.04962)">
          <circle cx="16" cy="16" r="12" fill="#fdf6e3" stroke="#002b36" stroke-width="2.8" id="circle1-9" />
          <path d="M 9,12 A 8,8 0 0 1 18,7" fill="none" stroke="#ffffff" stroke-width="2" stroke-linecap="round" id="path1-19" />
        </g>
      </g>
      <g id="particle-cloud-thought" transform="matrix(1.4537311,0,0,1.4537311,403.68264,-10.849108)" class="mascot-particle particle-cloud-thought" data-particle="cloud-thought">
        <path d="M 32,46 C 24,46 18,40 18,32 18,24 24,18 32,18 34,10 42,4 52,4 c 12,0 20,8 20,18 8,0 14,6 14,14 0,8 -6,14 -14,14 -4,0 -16,0 -40,-4 z" fill="#fdf6e3" stroke="#002b36" stroke-width="5" stroke-linecap="round" stroke-linejoin="round" id="path1-6" />
        <circle cx="16" cy="56" r="6" fill="#fdf6e3" stroke="#002b36" stroke-width="4" id="circle1-4" />
        <circle cx="8" cy="66" r="3.5" fill="#fdf6e3" stroke="#002b36" stroke-width="3" id="circle2-0" />
      </g>
      <g transform="matrix(0.7863599,-0.28621159,0.28621159,0.7863599,258.36113,80.099188)" id="particle-sweat-drop-right" class="mascot-particle particle-sweat-drop-right particle-drop-sweat-large particle-drop-tear" data-particle="sweat-drop-right">
        <path d="M 24,8 C 24,8 10,26 10,38 10,48 16,56 24,56 32,56 38,48 38,38 38,26 24,8 24,8 Z" fill="#268bd2" stroke="#002b36" stroke-width="4" stroke-linejoin="round" id="path1-46" />
        <path d="m 18,36 c 0,-6 2,-12 4,-16" fill="none" stroke="#fdf6e3" stroke-width="2.5" stroke-linecap="round" id="path2-2" />
      </g>
      <g id="particle-sweat-drop-left" transform="matrix(0.79964928,0,0,0.79964928,110.16857,192.35937)" class="mascot-particle particle-sweat-drop-left" data-particle="sweat-drop-left">
        <path d="M 16,4 C 16,4 6,16 6,24 6,30 10,35 16,35 22,35 26,30 26,24 26,16 16,4 16,4 Z" fill="#268bd2" stroke="#002b36" stroke-width="3" stroke-linejoin="round" id="path1-69" />
        <circle cx="13" cy="22" r="1.8" fill="#fdf6e3" id="circle1-87" />
      </g>
      <g id="particle-alert" transform="matrix(1.5520312,0,0,1.5520312,414.05595,-7.2667793)" class="mascot-particle particle-alert particle-bubble-alert" data-particle="alert">
        <circle cx="36" cy="36" r="30" fill="#fdf6e3" stroke="#002b36" stroke-width="5" id="circle1-28" />
        <line x1="36" y1="18" x2="36" y2="39" stroke="#dc322f" stroke-width="6.5" stroke-linecap="round" id="line1" />
        <circle cx="36" cy="50" r="4" fill="#dc322f" id="circle2-2" />
      </g>
      <g id="particle-dizzy" transform="matrix(1.5520312,0,0,1.5520312,414.05595,-7.2667793)" class="mascot-particle particle-dizzy particle-shock-lines particle-bubble-dizzy" data-particle="dizzy">
        <circle cx="36" cy="36" r="30" fill="#fdf6e3" stroke="#002b36" stroke-width="5" id="circle1-0" />
        <path d="m 36,36 a 4,4 0 0 1 0,-4 8,8 0 0 1 6,4 A 12,12 0 0 1 34,46 16,16 0 0 1 20,34 20,20 0 0 1 40,18" fill="none" stroke="#002b36" stroke-width="4" stroke-linecap="round" id="path1-27" />
      </g>
      <g id="particle-question" transform="matrix(1.5520312,0,0,1.5520312,414.05595,-7.2667793)" class="mascot-particle particle-question particle-bubble-question" data-particle="question">
        <circle cx="36" cy="36" r="30" fill="#fdf6e3" stroke="#002b36" stroke-width="5" id="circle1-61" />
        <path d="m 28,26 c 0,-6 4,-10 9,-10 5,0 9,4 9,9 0,5 -5,8 -9,11 v 6" fill="none" stroke="#002b36" stroke-width="5" stroke-linecap="round" id="path1-32" />
        <circle cx="37" cy="50" r="3.5" fill="#002b36" id="circle2-1" />
      </g>
    </g>
    <g id="mascot_beaks" class="mascot-beaks-group" inkscape:label="Beaks" transform="matrix(0.63710997,0.36783561,-0.36783561,0.63710997,170.30183,90.532257)">
      <g id="beak-dizzy" transform="translate(14.293583,1.619166)" inkscape:label="Wobbly Dizzy Mouth" class="mascot-beak beak-dizzy" data-beak="dizzy">
        <path style="fill:#dc322f;stroke:#002b36;stroke-width:12.7;stroke-linecap:round;stroke-linejoin:round" d="m 240,242 c 8,-6 16,8 24,-2 8,-8 18,8 26,2 -2,16 -16,22 -26,20 -10,-2 -20,-8 -24,-20 z" id="mouth" inkscape:label="mouth" />
        <path style="fill:#b58900;stroke:#002b36;stroke-width:12.7;stroke-linecap:round;stroke-linejoin:round" d="m 240,236 c 6,-10 18,-24 28,-24 10,0 22,14 28,24 -10,4 -22,-4 -30,2 -8,6 -18,2 -26,-2 z" id="upper_beak" inkscape:label="upper_beak" />
      </g>
      <g id="beak-grimace" transform="translate(14.293493,1.619166)" inkscape:label="Tense Grimace" class="mascot-beak beak-grimace" data-beak="grimace">
        <path style="fill:#dc322f;stroke:#002b36;stroke-width:12.7;stroke-linecap:round;stroke-linejoin:round" d="m 242,242 c 8,-4 16,6 26,-2 8,-6 16,4 24,0 -4,12 -18,16 -26,14 -8,-2 -18,-4 -24,-12 z" id="mouth-9" inkscape:label="mouth" />
        <path style="fill:#b58900;stroke:#002b36;stroke-width:12.7;stroke-linecap:round;stroke-linejoin:round" d="m 242,236 c 4,-12 18,-24 26,-24 10,0 22,12 26,24 -12,2 -40,2 -52,0 z" id="upper_beak-3" inkscape:label="upper_beak" />
      </g>
      <g id="beak-grin" transform="translate(14.293493,1.619166)" inkscape:label="Cheeky Grin" class="mascot-beak beak-grin" data-beak="grin">
        <path style="fill:#dc322f;stroke:#002b36;stroke-width:12.7;stroke-linecap:round;stroke-linejoin:round" d="m 240,240 c 6,-4 50,-4 56,0 0,16 -16,28 -28,28 -12,0 -28,-12 -28,-28 z" id="mouth-1" inkscape:label="mouth" />
        <path style="fill:#b58900;stroke:#002b36;stroke-width:12.7;stroke-linecap:round;stroke-linejoin:round" d="m 240,236 c 4,-12 18,-24 28,-24 10,0 24,12 28,24 -12,6 -44,6 -56,0 z" id="upper_beak-8" inkscape:label="upper_beak" />
      </g>
      <g id="beak-laugh" transform="translate(14.891222,3.619166)" inkscape:label="Wide Laugh" class="mascot-beak beak-laugh" data-beak="laugh">
        <path style="fill:#dc322f;stroke:#002b36;stroke-width:12.7;stroke-linecap:round;stroke-linejoin:round" d="m 238,238 c 6,-4 52,-4 58,0 2,24 -12,48 -29,48 -17,0 -31,-24 -29,-48 z" id="mouth-3" inkscape:label="mouth" />
        <path style="fill:#da5780;stroke:none" d="m 252,268 c 5,-6 20,-6 25,0 -4,8 -21,8 -25,0 z" id="tongue" inkscape:label="tongue" />
        <path style="fill:#b58900;stroke:#002b36;stroke-width:12.7;stroke-linecap:round;stroke-linejoin:round" d="m 241,234 c 4,-12 18,-24 28,-24 10,0 24,12 28,24 -12,4 -44,4 -56,0 z" id="upper_beak-7" inkscape:label="upper_beak" />
        <path style="fill:#b58900;stroke:#002b36;stroke-width:10;stroke-linecap:round;stroke-linejoin:round" d="m 256,282 c 4,4 18,4 22,0" id="lower_beak" inkscape:label="lower_beak" />
      </g>
      <g id="beak-pout" transform="translate(14.293493,-0.38083397)" inkscape:label="Pout / Frown" class="mascot-beak beak-pout" data-beak="pout">
        <path style="fill:#dc322f;stroke:#002b36;stroke-width:12.7;stroke-linecap:round;stroke-linejoin:round" d="m 242,248 c 8,6 44,6 52,0 -4,-12 -18,-18 -26,-18 -10,0 -22,6 -26,18 z" id="mouth-97" inkscape:label="mouth" />
        <path style="fill:#b58900;stroke:#002b36;stroke-width:12.7;stroke-linecap:round;stroke-linejoin:round" d="m 240,238 c 4,-12 18,-24 28,-24 10,0 24,12 28,24 -12,2 -44,2 -56,0 z" id="upper_beak-36" inkscape:label="upper_beak" />
      </g>
      <g id="beak-shocked" transform="translate(12.107702,3.619166)" inkscape:label="Extreme Shock / Jaw-Drop" class="mascot-beak beak-shocked" data-beak="shocked">
        <path style="fill:#dc322f;stroke:#002b36;stroke-width:12.7;stroke-linecap:round;stroke-linejoin:round" d="m 244,232 c 6,-3 40,-3 46,0 4,35 4,80 -4,94 -8,10 -30,10 -38,0 -8,-14 -8,-59 -4,-94 z" id="mouth-94" inkscape:label="mouth" />
        <path style="fill:#da5780;stroke:none" d="m 252,316 c 6,-8 20,-8 26,0 -4,8 -22,8 -26,0 z" id="tongue-7" inkscape:label="tongue" />
        <path style="fill:#b58900;stroke:#002b36;stroke-width:11;stroke-linecap:round;stroke-linejoin:round" d="m 252,326 c 8,6 18,6 26,0" id="lower_beak-8" inkscape:label="lower_beak" />
        <path style="fill:#b58900;stroke:#002b36;stroke-width:12.7;stroke-linecap:round;stroke-linejoin:round" d="m 243,232 c 4,-11 18,-22 28,-22 10,0 24,11 28,22 -12,4 -44,4 -56,0 z" id="upper_beak-4" inkscape:label="upper_beak" />
      </g>
      <g id="beak-sleep" transform="translate(12.293493,-0.38083397)" inkscape:label="Relaxed Sleep Beak" class="mascot-beak beak-sleep" data-beak="sleep">
        <path style="fill:#dc322f;stroke:#002b36;stroke-width:8;stroke-linecap:round;stroke-linejoin:round" d="m 244,242 c 12,4 36,4 46,0" id="mouth-6" inkscape:label="mouth" />
        <path style="fill:#b58900;stroke:#002b36;stroke-width:12.7;stroke-linecap:round;stroke-linejoin:round" d="m 242,236 c 4,-10 18,-22 28,-22 10,0 24,12 28,22 -12,4 -44,4 -56,0 z" id="upper_beak-32" inkscape:label="upper_beak" />
      </g>
      <g id="beak-smile" transform="translate(14.293541,1.8511225)" inkscape:label="Cheerful Smile" class="mascot-beak beak-smile" data-beak="smile">
        <path style="fill:#dc322f;stroke:#002b36;stroke-width:12.7;stroke-linecap:round;stroke-linejoin:round" d="m 240,242 c 6,-8 48,-8 54,2 -2,16 -18,26 -27,26 -10,0 -25,-10 -27,-28 z" id="mouth-4" inkscape:label="mouth" />
        <path style="fill:#b58900;stroke:#002b36;stroke-width:12.7;stroke-linecap:round;stroke-linejoin:round" d="m 240,236 c 4,-12 18,-26 28,-24 10,2 24,12 28,24 -12,8 -44,8 -56,0 z" id="upper_beak-76" inkscape:label="upper_beak" />
      </g>
      <g id="beak-smirk" transform="translate(14.293555,1.619166)" inkscape:label="Asymmetric Smirk" class="mascot-beak beak-smirk" data-beak="smirk">
        <path style="fill:#dc322f;stroke:#002b36;stroke-width:12.7;stroke-linecap:round;stroke-linejoin:round" d="m 240,242 c 8,-6 48,-2 54,8 -4,14 -18,20 -28,18 -10,-2 -24,-12 -26,-26 z" id="mouth-45" inkscape:label="mouth" />
        <path style="fill:#b58900;stroke:#002b36;stroke-width:12.7;stroke-linecap:round;stroke-linejoin:round" d="m 240,236 c 4,-12 18,-24 28,-24 10,0 24,10 28,20 -12,6 -44,8 -56,4 z" id="upper_beak-2" inkscape:label="upper_beak" />
      </g>
      <g id="beak-surprise" transform="translate(11.044519,4.619166)" inkscape:label="Surprise / Gasp" class="mascot-beak beak-surprise" data-beak="surprise">
        <path style="fill:#dc322f;stroke:#002b36;stroke-width:12.7;stroke-linecap:round;stroke-linejoin:round" d="m 245,234 c 5,-4 38,-4 44,0 4,26 4,58 -6,68 -8,8 -24,8 -32,0 -10,-10 -10,-42 -6,-68 z" id="mouth-30" inkscape:label="mouth" />
        <path style="fill:#b58900;stroke:#002b36;stroke-width:10;stroke-linecap:round;stroke-linejoin:round" d="m 254,300 c 6,5 20,5 26,0" id="lower_beak-7" inkscape:label="lower_beak" />
        <path style="fill:#b58900;stroke:#002b36;stroke-width:12.7;stroke-linecap:round;stroke-linejoin:round" d="m 244,233 c 4,-12 18,-24 28,-24 10,0 24,12 28,24 -12,5 -44,5 -56,0 z" id="upper_beak-86" inkscape:label="upper_beak" />
      </g>
      <g id="beak-talk-a" transform="translate(12.293493,1.619166)" inkscape:label="Speech Viseme: A / Open" class="mascot-beak beak-talk-a" data-beak="talk-a">
        <path style="fill:#b58900;stroke:#002b36;stroke-width:12.7;stroke-linecap:round;stroke-linejoin:round" d="m 246,238 c 4,18 14,34 24,34 10,0 20,-16 24,-34 z" id="lower_beak-9" inkscape:label="lower_beak" />
        <path style="fill:#dc322f;stroke:none" d="m 248,238 c 4,16 12,26 22,26 10,0 18,-10 22,-26 z" id="mouth-2" inkscape:label="mouth" />
        <path style="fill:#da5780;stroke:none" d="m 258,256 c 4,-4 16,-4 20,0 -2,6 -18,6 -20,0 z" id="tongue-0" inkscape:label="tongue" />
        <path style="fill:#b58900;stroke:#002b36;stroke-width:12.7;stroke-linecap:round;stroke-linejoin:round" d="m 242,236 c 4,-12 18,-24 28,-24 10,0 24,12 28,24 -12,4 -44,4 -56,0 z" id="upper_beak-6" inkscape:label="upper_beak" />
      </g>
      <g id="beak-talk-closed" transform="translate(12.293493,1.619166)" inkscape:label="Speech Viseme: Closed / M-B-P" class="mascot-beak beak-talk-closed beak-default" data-beak="default">
        <path style="fill:#b58900;stroke:#002b36;stroke-width:12.7;stroke-linecap:round;stroke-linejoin:round" d="m 246,238 c 6,12 16,20 24,20 8,0 18,-8 24,-20 z" id="lower_beak-95" inkscape:label="lower_beak" />
        <path style="fill:#b58900;stroke:#002b36;stroke-width:12.7;stroke-linecap:round;stroke-linejoin:round" d="m 242,236 c 4,-12 18,-24 28,-24 10,0 24,12 28,24 -12,4 -44,4 -56,0 z" id="upper_beak-0" inkscape:label="upper_beak" />
        <path style="fill:none;stroke:#002b36;stroke-width:10;stroke-linecap:round" d="m 244,237 c 12,3 38,3 50,0" id="mouth-48" inkscape:label="mouth" />
      </g>
      <g id="beak-talk-e" transform="translate(12.293752,1.619166)" inkscape:label="Speech Viseme: E / Stretched" class="mascot-beak beak-talk-e" data-beak="talk-e">
        <path style="fill:#b58900;stroke:#002b36;stroke-width:12.7;stroke-linecap:round;stroke-linejoin:round" d="m 240,238 c 8,10 20,15 30,15 10,0 22,-5 30,-15 z" id="lower_beak-2" inkscape:label="lower_beak" />
        <path style="fill:#dc322f;stroke:none" d="m 244,239 c 8,7 16,10 26,10 10,0 18,-3 26,-10 z" id="mouth-61" inkscape:label="mouth" />
        <path style="fill:#b58900;stroke:#002b36;stroke-width:12.7;stroke-linecap:round;stroke-linejoin:round" d="m 240,236 c 4,-12 18,-24 28,-24 10,0 24,12 28,24 -12,4 -44,4 -56,0 z" id="upper_beak-06" inkscape:label="upper_beak" />
      </g>
      <g id="beak-talk-fv" transform="translate(12.293493,1.619166)" inkscape:label="Speech Viseme: F-V / Labiodental" class="mascot-beak beak-talk-fv" data-beak="talk-fv">
        <path style="fill:#b58900;stroke:#002b36;stroke-width:12.7;stroke-linecap:round;stroke-linejoin:round" d="m 250,238 c 2,8 10,14 20,14 10,0 18,-6 20,-14 z" id="lower_beak-0" inkscape:label="lower_beak" />
        <path style="fill:#b58900;stroke:#002b36;stroke-width:12.7;stroke-linecap:round;stroke-linejoin:round" d="m 240,236 c 4,-12 18,-24 30,-24 12,0 26,12 30,24 -12,6 -48,6 -60,0 z" id="upper_beak-9" inkscape:label="upper_beak" />
      </g>
      <g id="beak-talk-i" transform="translate(12.293858,1.619166)" inkscape:label="Speech Viseme: I / High" class="mascot-beak beak-talk-i" data-beak="talk-i">
        <path style="fill:#b58900;stroke:#002b36;stroke-width:12.7;stroke-linecap:round;stroke-linejoin:round" d="m 240,238 c 8,8 20,12 30,12 10,0 22,-4 30,-12 z" id="lower_beak-97" inkscape:label="lower_beak" />
        <path style="fill:#dc322f;stroke:none" d="m 244,238 c 8,5 16,7 26,7 10,0 18,-2 26,-7 z" id="mouth-7" inkscape:label="mouth" />
        <path style="fill:none;stroke:#fdf6e3;stroke-width:4;stroke-linecap:round" d="m 246,239 c 10,2 16,3 24,3 8,0 14,-1 24,-3" id="teeth" inkscape:label="teeth" />
        <path style="fill:#b58900;stroke:#002b36;stroke-width:12.7;stroke-linecap:round;stroke-linejoin:round" d="m 240,236 c 4,-12 18,-24 28,-24 10,0 24,12 28,24 -12,4 -44,4 -56,0 z" id="upper_beak-67" inkscape:label="upper_beak" />
      </g>
      <g id="beak-talk-o" transform="translate(12.293493,1.619166)" inkscape:label="Speech Viseme: O / Round" class="mascot-beak beak-talk-o" data-beak="talk-o">
        <path style="fill:#b58900;stroke:#002b36;stroke-width:12.7;stroke-linecap:round;stroke-linejoin:round" d="m 248,238 c 4,16 12,28 22,28 10,0 18,-12 22,-28 z" id="lower_beak-94" inkscape:label="lower_beak" />
        <path style="fill:#dc322f;stroke:#002b36;stroke-width:8;stroke-linecap:round;stroke-linejoin:round" d="m 256,244 c 0,-8 28,-8 28,0 0,14 -28,14 -28,0 z" id="mouth-8" inkscape:label="mouth" />
        <path style="fill:#da5780;stroke:none" d="m 262,249 c 2,-3 10,-3 12,0 -1,3 -11,3 -12,0 z" id="tongue-1" inkscape:label="tongue" />
        <path style="fill:#b58900;stroke:#002b36;stroke-width:12.7;stroke-linecap:round;stroke-linejoin:round" d="m 244,236 c 4,-12 16,-24 26,-24 10,0 22,12 26,24 -10,4 -42,4 -52,0 z" id="upper_beak-29" inkscape:label="upper_beak" />
      </g>
      <g id="beak-talk-t" transform="translate(12.293493,1.619166)" inkscape:label="Speech Viseme: T-D-N / Dental" class="mascot-beak beak-talk-t" data-beak="talk-t">
        <path style="fill:#b58900;stroke:#002b36;stroke-width:12.7;stroke-linecap:round;stroke-linejoin:round" d="m 246,238 c 4,8 14,14 24,14 10,0 20,-6 24,-14 z" id="lower_beak-09" inkscape:label="lower_beak" />
        <path style="fill:none;stroke:#002b36;stroke-width:8;stroke-linecap:round" d="m 254,240 c 6,2 10,2 16,2 6,0 10,0 16,-2" id="mouth-63" inkscape:label="mouth" />
        <path style="fill:#da5780;stroke:none" d="m 266,241 c 2,-2 6,-2 8,0 -1,3 -7,3 -8,0 z" id="tongue-8" inkscape:label="tongue" />
        <path style="fill:#b58900;stroke:#002b36;stroke-width:12.7;stroke-linecap:round;stroke-linejoin:round" d="m 242,236 c 4,-12 18,-24 28,-24 10,0 24,12 28,24 -12,4 -44,4 -56,0 z" id="upper_beak-5" inkscape:label="upper_beak" />
      </g>
      <g id="beak-talk-u" transform="translate(12.293493,1.619166)" inkscape:label="Speech Viseme: U / Woo" class="mascot-beak beak-talk-u" data-beak="talk-u">
        <path style="fill:#b58900;stroke:#002b36;stroke-width:12.7;stroke-linecap:round;stroke-linejoin:round" d="m 252,238 c 2,10 8,18 18,18 10,0 16,-8 18,-18 z" id="lower_beak-4" inkscape:label="lower_beak" />
        <path style="fill:#dc322f;stroke:#002b36;stroke-width:6;stroke-linecap:round;stroke-linejoin:round" d="m 264,243 c 0,-5 12,-5 12,0 0,8 -12,8 -12,0 z" id="mouth-81" inkscape:label="mouth" />
        <path style="fill:#b58900;stroke:#002b36;stroke-width:12.7;stroke-linecap:round;stroke-linejoin:round" d="m 246,236 c 4,-12 14,-24 24,-24 10,0 20,12 24,24 -8,4 -40,4 -48,0 z" id="upper_beak-03" inkscape:label="upper_beak" />
      </g>
      <g id="beak-talk-wide" transform="translate(12.293493,3.619166)" inkscape:label="Speech Viseme: Wide / Exclamation" class="mascot-beak beak-talk-wide" data-beak="talk-wide">
        <path style="fill:#b58900;stroke:#002b36;stroke-width:12.7;stroke-linecap:round;stroke-linejoin:round" d="m 242,238 c 4,20 16,38 28,38 12,0 24,-18 28,-38 z" id="lower_beak-6" inkscape:label="lower_beak" />
        <path style="fill:#dc322f;stroke:#002b36;stroke-width:8;stroke-linecap:round;stroke-linejoin:round" d="m 246,238 c 4,18 14,30 24,30 10,0 20,-12 24,-30 z" id="mouth-31" inkscape:label="mouth" />
        <path style="fill:#da5780;stroke:none" d="m 259.85915,258 c 4,-6 16,-6 20,0 -2,8 -18,8 -20,0 z" id="tongue-75" inkscape:label="tongue" />
        <path style="fill:#b58900;stroke:#002b36;stroke-width:12.7;stroke-linecap:round;stroke-linejoin:round" d="m 240,235 c 4,-12 18,-25 30,-25 12,0 26,13 30,25 -12,4 -48,4 -60,0 z" id="upper_beak-96" inkscape:label="upper_beak" />
      </g>
    </g>
    <g id="mascot_eyes" class="mascot-eyes-group" inkscape:label="Eyes" transform="matrix(0.55911703,0.37565573,-0.37565573,0.55911703,196.85091,99.358858)">
      <g id="eyes-cry" transform="translate(13.970565,27.023722)" inkscape:label="Cry / Heavy Flowing Tears" class="mascot-eye eyes-cry" data-eyes="cry">
        <path d="m 174,216 22,10 22,-8" fill="none" stroke="#002b36" stroke-width="12.7" stroke-linecap="round" stroke-linejoin="round" id="right_eye-4" />
        <path d="m 316,206 22,10 22,-8" fill="none" stroke="#002b36" stroke-width="12.7" stroke-linecap="round" stroke-linejoin="round" id="left_eye-1" />
        <path d="m 144.7869,240.52391 c -10,8 -14,28 -8,43 6,10 20,7 18,-5 -4,-12 -6,-26 -10,-38 z" fill="#268bd2" stroke="#002b36" stroke-width="6" stroke-linejoin="round" id="right_tear" />
        <circle cx="140.7869" cy="274.5239" r="3.5" fill="#fdf6e3" id="circle1" />
        <path d="m 380.4657,225.37838 c 10,8 14,28 8,43 -6,10 -20,7 -18,-5 4,-12 6,-26 10,-38 z" fill="#268bd2" stroke="#002b36" stroke-width="6" stroke-linejoin="round" id="left_tear" />
        <circle cx="384.4657" cy="259.37839" r="3.5" fill="#fdf6e3" id="circle2" />
      </g>
      <g id="eyes-surprise" transform="translate(17.458556,0.54756299)" inkscape:label="Surprise Hollow Ring Eyes" class="mascot-eye eyes-surprise" data-eyes="surprise">
        <circle cx="175.62474" cy="221" r="33.945854" fill="#fdf6e3" stroke="#002b36" stroke-width="18.8588" id="right_eye-80" inkscape:label="right_eye" style="stroke-width:12.7;stroke-dasharray:none" />
        <circle cx="345.64072" cy="206.27002" r="33.66111" fill="#fdf6e3" stroke="#002b36" stroke-width="18.7006" id="left_eye-05" inkscape:label="left_eye" style="stroke-width:12.7;stroke-dasharray:none" />
      </g>
      <g id="eyes-wink" transform="translate(9.668229,5.2475556)" inkscape:label="Wink (Right Eye Closed)" class="mascot-eye eyes-wink eyes-wink-right" data-eyes="wink">
        <path d="m 174,224 c 8,-18 36,-18 44,0" fill="none" stroke="#002b36" stroke-width="12.7" stroke-linecap="round" id="right_eye-85" />
        <ellipse cx="338.20001" cy="211.3" rx="21.9" ry="29.299999" fill="#073642" id="left_eye-06" />
        <ellipse cx="331.10001" cy="201.89999" rx="6.5999999" ry="7.0999999" fill="#fdf6e3" id="ellipse1" />
        <ellipse cx="343.70001" cy="219.89999" rx="3.5999999" ry="3.9000001" fill="#fdf6e3" id="ellipse2" />
      </g>
      <g id="eyes-wink-left" transform="translate(8.3066784,0.54137076)" inkscape:label="Wink (Left Eye Closed)" class="mascot-eye eyes-wink-left" data-eyes="wink-left">
        <ellipse cx="195.8" cy="221.10001" rx="24.4" ry="30.799999" fill="#073642" id="right_eye-5" />
        <ellipse cx="202.39999" cy="209.39999" rx="6.5999999" ry="7.0999999" fill="#fdf6e3" id="ellipse1-8" />
        <ellipse cx="193.8" cy="230.7" rx="3.5999999" ry="3.9000001" fill="#fdf6e3" id="ellipse2-6" />
        <path d="m 316,214 c 8,-18 36,-18 44,0" fill="none" stroke="#002b36" stroke-width="12.7" stroke-linecap="round" id="left_eye-2" />
      </g>
      <g id="eyes-sparkle" inkscape:label="Sparkle Eyes" class="mascot-eye eyes-sparkle" data-eyes="sparkle">
        <g id="g10" transform="matrix(1.5520312,0,0,1.5520312,163.21788,185.36576)">
          <path d="M 24,4 Q 24,24 44,24 24,24 24,44 24,24 4,24 24,24 24,4 Z" fill="#b58900" stroke="#002b36" stroke-width="3" stroke-linejoin="round" id="path1-14" />
          <circle cx="24" cy="24" r="3" fill="#fdf6e3" id="circle1-91" />
        </g>
        <g id="g10-7" transform="matrix(1.5520312,0,0,1.5520312,320.74937,174.6129)">
          <path d="M 24,4 Q 24,24 44,24 24,24 24,44 24,24 4,24 24,24 24,4 Z" fill="#b58900" stroke="#002b36" stroke-width="3" stroke-linejoin="round" id="path1-14-0" />
          <circle cx="24" cy="24" r="3" fill="#fdf6e3" id="circle1-91-4" />
        </g>
      </g>
      <g id="eyes-heart" inkscape:label="Heart Eyes" class="mascot-eye eyes-heart" data-eyes="heart">
        <g id="g11" transform="matrix(1.2434217,0,0,1.2434217,156.6749,188.58651)">
          <path d="M 32,56 C 20,44 6,34 6,20 6,10 14,4 24,4 c 4.5,0 7,3 8,5 1,-2 3.5,-5 8,-5 10,0 18,6 18,16 0,14 -14,24 -26,36 z" fill="#da5780" stroke="#002b36" stroke-width="4.5" stroke-linecap="round" stroke-linejoin="round" id="path1-8" />
          <path d="m 23,10 c -6,0 -11,5 -11,11 0,3 2,6 4,8" fill="none" stroke="#f48498" stroke-width="3" stroke-linecap="round" id="path2-0" />
          <circle cx="20" cy="16" r="2.5" fill="#fdf6e3" id="circle2-42" />
        </g>
        <g id="g11-4" transform="matrix(1.2434217,0,0,1.2434217,323.30779,173.04223)">
          <path d="M 32,56 C 20,44 6,34 6,20 6,10 14,4 24,4 c 4.5,0 7,3 8,5 1,-2 3.5,-5 8,-5 10,0 18,6 18,16 0,14 -14,24 -26,36 z" fill="#da5780" stroke="#002b36" stroke-width="4.5" stroke-linecap="round" stroke-linejoin="round" id="path1-8-2" />
          <path d="m 23,10 c -6,0 -11,5 -11,11 0,3 2,6 4,8" fill="none" stroke="#f48498" stroke-width="3" stroke-linecap="round" id="path2-0-2" />
          <circle cx="20" cy="16" r="2.5" fill="#fdf6e3" id="circle2-42-2" />
        </g>
      </g>
      <g id="eyes-happy" transform="translate(12.335392,-4.1094149)" inkscape:label="Happy / Cheerful Smile" class="mascot-eye eyes-happy" data-eyes="happy">
        <path d="m 174,224 c 8,-18 36,-18 44,0" fill="none" stroke="#002b36" stroke-width="12.7" stroke-linecap="round" id="right_eye-3" />
        <path d="m 316,214 c 8,-18 36,-18 44,0" fill="none" stroke="#002b36" stroke-width="12.7" stroke-linecap="round" id="left_eye-8" />
      </g>
      <g id="eyes-laugh" transform="translate(10.27718,-15.986667)" inkscape:label="Laughing Eyes" class="mascot-eye eyes-laugh" data-eyes="laugh">
        <path d="m 172,224 c 10,-22 38,-22 48,0" fill="none" stroke="#002b36" stroke-width="12.7" stroke-linecap="round" id="right_eye-6" />
        <path d="m 314,214 c 10,-22 38,-22 48,0" fill="none" stroke="#002b36" stroke-width="12.7" stroke-linecap="round" id="left_eye-4" />
      </g>
      <g id="eyes-love" transform="translate(12.335392,10.705317)" inkscape:label="Love / Heart Eyes" class="mascot-eye eyes-love" data-eyes="love">
        <path d="m 196,238 c -14,-12 -24,-22 -24,-32 0,-10 10,-16 20,-10 2,2 4,4 4,4 0,0 2,-2 4,-4 10,-6 20,0 20,10 0,10 -10,20 -24,32 z" fill="#dc322f" stroke="#002b36" stroke-width="7" stroke-linejoin="round" id="right_eye-38" inkscape:label="right_eye" />
        <circle cx="188" cy="202" r="3" fill="#fdf6e3" id="circle1-6" />
        <path d="m 338,228 c -14,-12 -24,-22 -24,-32 0,-10 10,-16 20,-10 2,2 4,4 4,4 0,0 2,-2 4,-4 10,-6 20,0 20,10 0,10 -10,20 -24,32 z" fill="#dc322f" stroke="#002b36" stroke-width="7" stroke-linejoin="round" id="left_eye-0" inkscape:label="left_eye" />
        <circle cx="330" cy="192" r="3" fill="#fdf6e3" id="circle2-4" />
      </g>
      <g id="eyes-open" transform="translate(14.099935,0.45366199)" inkscape:label="Open / Default" class="mascot-eye eyes-open eyes-default" data-eyes="open">
        <ellipse cx="195.8" cy="221.10001" rx="24.4" ry="30.799999" fill="#073642" id="right_eye-64" inkscape:label="right_eye" />
        <ellipse cx="202.39999" cy="209.39999" rx="6.5999999" ry="7.0999999" fill="#fdf6e3" id="upper_right_reflection" />
        <ellipse cx="193.8" cy="230.7" rx="3.5999999" ry="3.9000001" fill="#fdf6e3" id="lower_right_reflection" />
        <ellipse cx="338.20001" cy="211.3" rx="21.9" ry="29.299999" fill="#073642" id="left_eye-3" inkscape:label="left_eye" />
        <ellipse cx="331.10001" cy="201.89999" rx="6.5999999" ry="7.0999999" fill="#fdf6e3" id="upper_left_reflection" />
        <ellipse cx="343.70001" cy="219.89999" rx="3.5999999" ry="3.9000001" fill="#fdf6e3" id="lower_left_reflection" />
      </g>
      <g id="eyes-shocked" transform="translate(11.306286,3.9764311)" inkscape:label="Shocked Pinpoint Eyes" class="mascot-eye eyes-shocked" data-eyes="shocked">
        <circle cx="196" cy="221" r="7" fill="#002b36" id="right_eye-9" inkscape:label="right_eye" />
        <circle cx="198" cy="219" r="2.5" fill="#fdf6e3" id="circle1-2" />
        <circle cx="338" cy="211" r="7" fill="#002b36" id="left_eye-5" inkscape:label="left_eye" />
        <circle cx="340" cy="209" r="2.5" fill="#fdf6e3" id="circle2-40" />
      </g>
      <g id="eyes-sleepy" transform="translate(18.510028,-4.596334)" inkscape:label="Sleepy / Drowsy" class="mascot-eye eyes-sleepy" data-eyes="sleepy">
        <path d="m 170,216 c 12,6 40,6 52,0" fill="none" stroke="#002b36" stroke-width="12.7" stroke-linecap="round" id="path1-4" />
        <path d="m 312,206 c 12,6 40,6 52,0" fill="none" stroke="#002b36" stroke-width="12.7" stroke-linecap="round" id="path2" />
      </g>
      <g id="eyes-squint" transform="translate(19.64162,4.641378)" inkscape:label="Squint / Laughing" class="mascot-eye eyes-squint" data-eyes="squint">
        <path d="m 176,214 26,8 -26,8" fill="none" stroke="#002b36" stroke-width="12.7" stroke-linecap="round" stroke-linejoin="round" id="right_eye-8" />
        <path d="m 358,204 -26,8 26,8" fill="none" stroke="#002b36" stroke-width="12.7" stroke-linecap="round" stroke-linejoin="round" id="left_eye-9" />
      </g>
      <g id="eyes-blink" transform="translate(12.941459,-1.1151894)" inkscape:label="Blink / Closed" class="mascot-eye eyes-blink" data-eyes="blink">
        <path d="m 174,220 c 6,18 38,18 44,0" fill="none" stroke="#002b36" stroke-width="12.7" stroke-linecap="round" id="right_eye" />
        <path d="m 316,210 c 6,18 38,18 44,0" fill="none" stroke="#002b36" stroke-width="12.7" stroke-linecap="round" id="left_eye" />
      </g>
    </g>
  </g>
</svg>